<?xml version="1.0" encoding="utf-8"?>
<svg id="master-artboard" viewBox="0 0 1400 1400" version="1.1" xmlns="http://www.w3.org/2000/svg" x="0px" y="0px" width="1400px" height="1400px" enable-background="new 0 0 1400 1400"><rect id="ee-background" x="0" y="0" width="1400" height="1400" style="fill: white; fill-opacity: 0; pointer-events: none;"/><defs><linearGradient id="gradient-0" gradientUnits="userSpaceOnUse" x1="700" y1="0" x2="700" y2="1400">
                <stop offset="0" style="stop-color: #ffffff"/>
                <stop offset="1" style="stop-color: #cccccc"/>
              </linearGradient><linearGradient id="gradient-1" gradientUnits="userSpaceOnUse" x1="-359.908447265625" y1="-639.8389282226562" x2="-359.908447265625" y2="760.1611328125" gradientTransform="matrix(0.6595850808279855, -0.7516299002511161, 0.6783772495814732, 0.5953029523577009, 238.29044342041016, 526.1409301757812)">
                <stop offset="0" style="stop-color: #fbfbff"/>
                <stop offset="1" style="stop-color: #9595ff"/>
              </linearGradient></defs>
<path d="M 0 0 H 1400 V 1400 H 0 V 0 Z" fill="#A9D6FF" style="fill: rgb(251, 251, 255);"/>
<g>
	<g>
		<g>
			<path d="M 940.0999755859375 1147.5999755859375 L 939.9000244140625 1207.800048828125 L 1014.5 1250.9000244140625 L 1014.7000122070312 1190.5999755859375 Z" fill="#031E6C"/>
			<g>
				<path d="M 940.0999755859375 1147.5999755859375 L 960.2000122070312 1135.9000244140625 L 1034.699951171875 1178.9000244140625 L 1014.7000122070312 1190.5999755859375 Z" fill="#5880DB"/>
			</g>
			<g>
				<path d="M 1014.7000122070312 1190.5999755859375 L 1034.699951171875 1178.9000244140625 L 1034.5999755859375 1239.199951171875 L 1014.5 1250.9000244140625 Z" fill="#041D5B"/>
			</g>
			<path d="M 951.5 1140.9000244140625 L 950.5 1141.5 L 1025 1184.5999755859375 L 1026.0999755859375 1184 Z" fill="#92D7FE"/>
			<path d="M 940.0999755859375 1147.5999755859375 L 940.0999755859375 1166 L 940.0999755859375 1166 L 1014.5999755859375 1209 L 1014.7000122070312 1190.5999755859375 Z" fill="#4367C7"/>
			<g>
				<path d="M 1014.7000122070312 1209.0999755859375 L 1034.699951171875 1197.4000244140625 L 1034.699951171875 1178.9000244140625 L 1014.7000122070312 1190.5999755859375 L 1014.5999755859375 1209.0999755859375 Z" fill="#355DB7"/>
				<path fill="#041D5B" d="M1014.5,1247.6l0,3.3l0.1,0L1014.5,1247.6C1014.5,1247.6,1014.5,1247.6,1014.5,1247.6z"/>
			</g>
			<path d="M 1025 1244.800048828125 L 1026.0999755859375 1244.0999755859375 L 1026.0999755859375 1184 L 1025 1184.5999755859375 Z" fill="#92D7FE"/>
		</g>
		<g>
			<g>
				<path fill="#031E6C" d="M994.5,1154.1c2.3,1.3,4.2,4.6,4.2,7.3l0,9.6l-3-1.7l0-9.6c0-0.8-0.5-1.7-1.2-2.1l-17.4-10.1&#10;&#9;&#9;&#9;&#9;&#9;c-0.7-0.4-1.2-0.1-1.2,0.7l0,9.6l-3-1.7l0-9.6c0-2.7,1.9-3.8,4.2-2.4L994.5,1154.1z"/>
			</g>
			<path fill="#031E6C" d="M998.2,1152l-17.4-10.1c-1.2-0.7-2.2-0.7-3-0.3l-3.7,2.2c0.8-0.4,1.8-0.4,3,0.3l2.5,1.4l-3.3,1.9&#10;&#9;&#9;&#9;&#9;c-0.2,0.1-0.4,0.4-0.4,0.8l0,9.6l3.7-2.2l0-9.6c0-0.2,0-0.3,0.1-0.5l14.8,8.5c2.3,1.3,4.2,4.6,4.2,7.3l0,9.6l3.7-2.2l0-9.6&#10;&#9;&#9;&#9;&#9;C1002.5,1156.6,1000.6,1153.3,998.2,1152z"/>
		</g>
	</g>
	<g>
		<path fill="#F2F2F2" d="M522.2,1008.2l-1.5-649.5l-14.1-8.2l1.5,649.5c0,6.8,2.4,11.6,6.3,13.9l14.1,8.2&#10;&#9;&#9;&#9;C524.6,1019.8,522.2,1015,522.2,1008.2z"/>
		<g>
			<path fill="#FFFFFF" d="M520.7,358.7l0.1,49.5L872.7,205l1.4,600c0,13.7-9.6,30.4-21.5,37.3l-308.6,178.2&#10;&#9;&#9;&#9;&#9;c-11.9,6.9-21.6,1.4-21.7-12.4L520.7,358.7z"/>
		</g>
		<path fill="#77BDFB" d="M858.6,196.8l-337.8,195l-0.1-33.2c0-13.7,9.6-30.4,21.5-37.3l308.6-178.2c6-3.5,11.4-3.8,15.4-1.5&#10;&#9;&#9;&#9;l-14.1-8.2c-3.9-2.3-9.4-2-15.4,1.5L528.2,313.2c-11.9,6.9-21.6,23.6-21.5,37.3l0.1,49.5l14.1,8.2L872.7,205L858.6,196.8z"/>
		<g>
			<path fill="#4367C7" d="M850.9,143.2c11.9-6.9,21.6-1.4,21.7,12.4l0.1,49.5L520.9,408.2l-0.1-49.5c0-13.7,9.6-30.4,21.5-37.3&#10;&#9;&#9;&#9;&#9;L850.9,143.2z"/>
		</g>
		<g>
			<g>
				<path fill="#FED22C" d="M782.7,211.1c4.1-2.4,7.5-0.5,7.5,4.3c0,4.8-3.3,10.5-7.5,12.9c-4.1,2.4-7.5,0.5-7.5-4.3&#10;&#9;&#9;&#9;&#9;&#9;C775.2,219.3,778.6,213.5,782.7,211.1z"/>
			</g>
			<g>
				<path fill="#F965A8" d="M808.2,196.4c4.1-2.4,7.5-0.5,7.5,4.3c0,4.8-3.3,10.5-7.5,12.9c-4.1,2.4-7.5,0.5-7.5-4.3&#10;&#9;&#9;&#9;&#9;&#9;C800.8,204.6,804.1,198.8,808.2,196.4z"/>
			</g>
			<g>
				<path fill="#92D7FE" d="M833.8,181.7c4.1-2.4,7.5-0.5,7.5,4.3c0,4.8-3.3,10.5-7.5,12.9c-4.1,2.4-7.5,0.5-7.5-4.3&#10;&#9;&#9;&#9;&#9;&#9;C826.3,189.8,829.6,184,833.8,181.7z"/>
			</g>
		</g>
	</g>
	<g>
		<g>
			<path d="M 683.7999877929688 549.7000122070312 L 684.2000122070312 699.7999877929688 L 553.7000122070312 775.2000122070312 L 553.2000122070312 625.0999755859375 Z" fill="#F2F2F2"/>
		</g>
		<g>
			<path d="M 683.2999877929688 363.8999938964844 L 683.7000122070312 513.9000244140625 L 553.0999755859375 589.2999877929688 L 552.7000122070312 439.29998779296875 Z" fill="#F2F2F2"/>
		</g>
		<g>
			<path d="M 843 271.70001220703125 L 843.4000244140625 421.70001220703125 L 712.7999877929688 497.1000061035156 L 712.4000244140625 347.1000061035156 Z" fill="#F2F2F2"/>
		</g>
		<g>
			<path d="M 843.5 457.5 L 843.9000244140625 607.5999755859375 L 713.2999877929688 683 L 712.9000244140625 532.9000244140625 Z" fill="#F2F2F2"/>
		</g>
		<g>
			<path d="M 684.2999877929688 735.5 L 684.7999877929688 885.5999755859375 L 554.2000122070312 961 L 553.7999877929688 810.9000244140625 Z" fill="#F2F2F2"/>
		</g>
		<g>
			<path d="M 844 643.2999877929688 L 844.5 793.4000244140625 L 713.9000244140625 868.7999877929688 L 713.4000244140625 718.7000122070312 Z" fill="#F2F2F2"/>
		</g>
	</g>
	<g>
		<path fill="#031E6C" d="M902.2,441.5c5.5-3.2,10-0.6,10,5.7l0.6,205.3c0,6.3-4.4,14.1-10,17.3L663.2,808.1c-5.5,3.2-10,0.6-10-5.7&#10;&#9;&#9;&#9;l-0.6-205.3c0-6.3,4.4-14.1,10-17.3L902.2,441.5z"/>
		<path fill="#FFFFFF" d="M907.3,447.2c0-1.4-0.3-2-0.4-2.1c0,0,0,0-0.2,0c-0.2,0-0.9,0.1-2,0.7L665.1,584.2&#10;&#9;&#9;&#9;c-4,2.3-7.5,8.3-7.5,12.9l0.1,25.8l249.7-144.1L907.3,447.2z"/>
		<g>
			<path fill="#FFFFFF" d="M887.9,569.9c1.4-0.8,2.6-0.2,2.6,1.5c0,1.7-1.2,3.7-2.6,4.5l-67,38.7c-1.4,0.8-2.6,0.2-2.6-1.5&#10;&#9;&#9;&#9;&#9;c0-1.7,1.2-3.7,2.6-4.5L887.9,569.9z"/>
		</g>
		<g>
			<path fill="#FFFFFF" d="M887.8,543.4c1.4-0.8,2.6-0.2,2.6,1.5s-1.2,3.7-2.6,4.5l-67,38.7c-1.4,0.8-2.6,0.2-2.6-1.5&#10;&#9;&#9;&#9;&#9;s1.2-3.7,2.6-4.5L887.8,543.4z"/>
		</g>
		<g>
			<path fill="#FFFFFF" d="M810.4,614.7c1.4-0.8,2.6-0.2,2.6,1.5c0,1.7-1.2,3.7-2.6,4.5l-32.3,18.6c-1.4,0.8-2.6,0.2-2.6-1.5&#10;&#9;&#9;&#9;&#9;c0-1.7,1.2-3.7,2.6-4.5L810.4,614.7z"/>
		</g>
		<g>
			<path fill="#F965A8" d="M835.8,586.1c1.4-0.8,2.6-0.2,2.6,1.5s-1.2,3.7-2.6,4.5l-57.7,33.3c-1.4,0.8-2.6,0.2-2.6-1.5&#10;&#9;&#9;&#9;&#9;s1.2-3.7,2.6-4.5L835.8,586.1z"/>
		</g>
		<g>
			<path fill="#FFFFFF" d="M767.8,639.3c1.4-0.8,2.6-0.2,2.6,1.5c0,1.7-1.2,3.7-2.6,4.5l-13.8,7.9c-1.4,0.8-2.6,0.2-2.6-1.5&#10;&#9;&#9;&#9;&#9;c0-1.7,1.2-3.7,2.6-4.5L767.8,639.3z"/>
		</g>
		<g>
			<path fill="#92D7FE" d="M888.5,647.7c1.4-0.8,2.6-0.2,2.6,1.5c0,1.7-1.2,3.7-2.6,4.5L683.3,772.2c-1.4,0.8-2.6,0.2-2.6-1.5&#10;&#9;&#9;&#9;&#9;c0-1.7,1.2-3.7,2.6-4.5L888.5,647.7z"/>
		</g>
		<g>
			<path fill="#FED22C" d="M835.7,559.6c1.4-0.8,2.6-0.2,2.6,1.5c0,1.7-1.2,3.7-2.6,4.5L778,598.9c-1.4,0.8-2.6,0.2-2.6-1.5&#10;&#9;&#9;&#9;&#9;c0-1.7,1.2-3.7,2.6-4.5L835.7,559.6z"/>
		</g>
		<g>
			<path fill="#92D7FE" d="M888.5,634.9c1.4-0.8,2.6-0.2,2.6,1.5c0,1.7-1.2,3.7-2.6,4.5L683.3,759.4c-1.4,0.8-2.6,0.2-2.6-1.5&#10;&#9;&#9;&#9;&#9;c0-1.7,1.2-3.7,2.6-4.5L888.5,634.9z"/>
		</g>
		<g>
			<path fill="#92D7FE" d="M888.5,622.1c1.4-0.8,2.6-0.2,2.6,1.5c0,1.7-1.2,3.7-2.6,4.5L683.2,746.7c-1.4,0.8-2.6,0.2-2.6-1.5&#10;&#9;&#9;&#9;&#9;c0-1.7,1.2-3.7,2.6-4.5L888.5,622.1z"/>
		</g>
		<g>
			<path fill="#3AE0C0" d="M767.9,651.8c1.4-0.8,2.6-0.2,2.6,1.5c0,1.7-1.2,3.7-2.6,4.5l-51.7,29.9c-1.4,0.8-2.6,0.2-2.6-1.5&#10;&#9;&#9;&#9;&#9;c0-1.7,1.2-3.7,2.6-4.5L767.9,651.8z"/>
		</g>
		<g>
			<path fill="#92D7FE" d="M888.4,609.4c1.4-0.8,2.6-0.2,2.6,1.5c0,1.7-1.2,3.7-2.6,4.5L683.2,733.9c-1.4,0.8-2.6,0.2-2.6-1.5&#10;&#9;&#9;&#9;&#9;c0-1.7,1.2-3.7,2.6-4.5L888.4,609.4z"/>
		</g>
		<g>
			<path fill="#92D7FE" d="M888.4,596.6c1.4-0.8,2.6-0.2,2.6,1.5s-1.2,3.7-2.6,4.5L683.1,721.1c-1.4,0.8-2.6,0.2-2.6-1.5&#10;&#9;&#9;&#9;&#9;s1.2-3.7,2.6-4.5L888.4,596.6z"/>
		</g>
		<g>
			<path fill="#FED22C" d="M767.9,625.3c1.4-0.8,2.6-0.2,2.6,1.5c0,1.7-1.2,3.7-2.6,4.5l-51.7,29.9c-1.4,0.8-2.6,0.2-2.6-1.5&#10;&#9;&#9;&#9;&#9;s1.2-3.7,2.6-4.5L767.9,625.3z"/>
		</g>
		<g>
			<path fill="#3AE0C0" d="M706.7,687.2c1.4-0.8,2.6-0.2,2.6,1.5c0,1.7-1.2,3.7-2.6,4.5l-23.6,13.6c-1.4,0.8-2.6,0.2-2.6-1.5&#10;&#9;&#9;&#9;&#9;c0-1.7,1.2-3.7,2.6-4.5L706.7,687.2z"/>
		</g>
		<g>
			<path fill="#FFFFFF" d="M744.7,652.6c1.4-0.8,2.6-0.2,2.6,1.5c0,1.7-1.2,3.7-2.6,4.5l-61.6,35.6c-1.4,0.8-2.6,0.2-2.6-1.5&#10;&#9;&#9;&#9;&#9;c0-1.7,1.2-3.7,2.6-4.5L744.7,652.6z"/>
		</g>
		<g>
			<path fill="#FED22C" d="M767.8,598.8c1.4-0.8,2.6-0.2,2.6,1.5c0,1.7-1.2,3.7-2.6,4.5l-51.7,29.9c-1.4,0.8-2.6,0.2-2.6-1.5&#10;&#9;&#9;&#9;&#9;c0-1.7,1.2-3.7,2.6-4.5L767.8,598.8z"/>
		</g>
		<g>
			<path fill="#FED22C" d="M706.6,660.7c1.4-0.8,2.6-0.2,2.6,1.5c0,1.7-1.2,3.7-2.6,4.5L683,680.3c-1.4,0.8-2.6,0.2-2.6-1.5&#10;&#9;&#9;&#9;&#9;s1.2-3.7,2.6-4.5L706.6,660.7z"/>
		</g>
		<g>
			<path fill="#3AE0C0" d="M744.6,626.1c1.4-0.8,2.6-0.2,2.6,1.5c0,1.7-1.2,3.7-2.6,4.5L683,667.7c-1.4,0.8-2.6,0.2-2.6-1.5&#10;&#9;&#9;&#9;&#9;c0-1.7,1.2-3.7,2.6-4.5L744.6,626.1z"/>
		</g>
		<g>
			<path fill="#F965A8" d="M744.5,599.6c1.4-0.8,2.6-0.2,2.6,1.5c0,1.7-1.2,3.7-2.6,4.5l-61.6,35.6c-1.4,0.8-2.6,0.2-2.6-1.5&#10;&#9;&#9;&#9;&#9;c0-1.7,1.2-3.7,2.6-4.5L744.5,599.6z"/>
		</g>
		<g>
			<path fill="#FFFFFF" d="M810.3,588.2c1.4-0.8,2.6-0.2,2.6,1.5c0,1.7-1.2,3.7-2.6,4.5l-32.3,18.6c-1.4,0.8-2.6,0.2-2.6-1.5&#10;&#9;&#9;&#9;&#9;c0-1.7,1.2-3.7,2.6-4.5L810.3,588.2z"/>
		</g>
		<g>
			<path fill="#FFFFFF" d="M810.2,561.6c1.4-0.8,2.6-0.2,2.6,1.5c0,1.7-1.2,3.7-2.6,4.5L778,586.3c-1.4,0.8-2.6,0.2-2.6-1.5&#10;&#9;&#9;&#9;&#9;c0-1.7,1.2-3.7,2.6-4.5L810.2,561.6z"/>
		</g>
		<g>
			<path fill="#F965A8" d="M888.4,555.7c1.2-0.7,2.1-0.1,2.1,1.2l0,1.2c0,1.3-0.9,3-2.1,3.6l-42.2,24.4c-1.2,0.7-2.1,0.1-2.1-1.2&#10;&#9;&#9;&#9;&#9;l0-1.2c0-1.3,0.9-3,2.1-3.6L888.4,555.7z"/>
		</g>
		<g>
			<path fill="#F965A8" d="M767.6,586.2c1.4-0.8,2.6-0.2,2.6,1.5c0,1.7-1.2,3.7-2.6,4.5l-13.8,7.9c-1.4,0.8-2.6,0.2-2.6-1.5&#10;&#9;&#9;&#9;&#9;c0-1.7,1.2-3.7,2.6-4.5L767.6,586.2z"/>
		</g>
	</g>
	<g>
		<path fill="#E9B488" d="M751.1,802.1c0,0-15.3-10.2-28.8-24.5c0,0-9.1-0.6-14.6-4.7c-5.5-4.1-5.5-4.4-6.3-6.3&#10;&#9;&#9;&#9;c-0.8-1.9-2.2-6.9-2.2-6.9s-6.6-2.2-8.5-5.2c-1.9-3,3.6-2.8,7.7-1.1c4.1,1.7,13.8,6.6,13.8,6.6s11,4.4,14.3,6.6&#10;&#9;&#9;&#9;s31.4,17.6,31.4,17.6L751.1,802.1z"/>
		<path fill="#FEFBF0" d="M789.6,974.8c0,0-12-1.1-19.1-1.9c0,0-6-1-6.4,4.6c-0.4,5.5,3,9.7,12.7,14.5l12.7,5.6c0,0,4.8,3.4,9.3,3.4&#10;&#9;&#9;&#9;c4.5,0,7.9-1.5,8.2-4.9v-28.8L789.6,974.8z"/>
		<path fill="#FEFBF0" d="M813.6,957.9c0,0-12-1.1-19.1-1.9c0,0-6-1-6.4,4.6c-0.4,5.5,3,9.7,12.7,14.5l12.7,5.6c0,0,4.8,3.4,9.3,3.4&#10;&#9;&#9;&#9;c4.5,0,7.9-1.5,8.2-4.9v-28.8L813.6,957.9z"/>
		<path fill="#FED22C" d="M776.9,837.5l-3.7-0.7c0,0-1.1,25.4,1.9,44.1s4.9,35.9,9.3,57.2c4.5,21.3,2.2,39.3,2.2,39.3&#10;&#9;&#9;&#9;s-0.4,7.1,7.1,9.3c7.5,2.2,13.5-4.9,13.5-4.9s-1.1-58.7-1.5-66.2s-4.1-20.2-4.1-20.2s5.2,10.5,7.1,21.7v47.1c0,0,0.7,6,10.1,7.1&#10;&#9;&#9;&#9;c9.3,1.1,12.4-7.5,12.4-7.5v-40c0,0-1.4-12.8-3-24.5c-1.3-9.8-1.3-19.7,0.1-29.5c2-13.3,4.1-32.3,2.9-43.2&#10;&#9;&#9;&#9;C829.2,826.3,776.9,837.5,776.9,837.5z"/>
		<path fill="#E9B488" d="M781,701.8V716c0,0-1.5,13.1,6.7,13.1v11.2h20.6V728l-17.6-29.2l-9.8-2.6L781,701.8z"/>
		<path fill="#713D22" d="M781,701.8c0,0,1.1,0,2.6,2.2c1.5,2.2,2.6,6.7,2.6,6.7s2.2-0.4,3.4,3c1.1,3.4,1.1,3.4,1.1,3.4&#10;&#9;&#9;&#9;s6.4,1.9,8.2,6c1.9,4.1,4.9,5.6,9.3,4.9c0,0,4.5-0.7,7.5-7.9c3-7.1,4.9-17.6-1.9-25.4c-6.7-7.9-10.8-9-21.7-9&#10;&#9;&#9;&#9;C781.3,685.7,777.2,697.4,781,701.8z"/>
		<path fill="#3AE0C0" d="M794.6,737.3c0,0-8.7,2.2-21.1,12.7c-12.3,10.5-22.4,34-22.4,34s-4.9,9.3-2.2,15c0,0,3,5.6,7.1,5.6&#10;&#9;&#9;&#9;c4.1,0,12.8-9.7,15.4-13.1c2.6-3.4,4.4-5.6,4.4-5.6s0.7,11.2,0,18.7s-2.6,32.2-2.6,32.2s0.2,16.8,7.7,23.9&#10;&#9;&#9;&#9;c7.6,7.1,19.9,0.4,29.7-3.7c9.7-4.1,16.5-10.8,18.7-14.6c2.2-3.7,3-22.4,0-32.9c-3-10.5-5.2-23.2-3-34.8&#10;&#9;&#9;&#9;c2.2-11.6,7.5-25.4,2.2-37.4S808.8,729.9,794.6,737.3z"/>
	</g>
	<g>
		<g>
			<path fill="#031E6C" d="M675.4,590.2c2.4-1.4,4.4-0.3,4.4,2.5s-1.9,6.2-4.4,7.6s-4.4,0.3-4.4-2.5S673,591.6,675.4,590.2z"/>
		</g>
		<g>
			<path fill="#031E6C" d="M690.3,581.6c2.4-1.4,4.4-0.3,4.4,2.5c0,2.8-1.9,6.2-4.4,7.6c-2.4,1.4-4.4,0.3-4.4-2.5&#10;&#9;&#9;&#9;&#9;C686,586.4,687.9,583,690.3,581.6z"/>
		</g>
		<g>
			<path fill="#031E6C" d="M705.3,573c2.4-1.4,4.4-0.3,4.4,2.5c0,2.8-2,6.2-4.4,7.6s-4.4,0.3-4.4-2.5S702.9,574.4,705.3,573z"/>
		</g>
	</g>
	<g>
		<g>
			<path fill="#3AE0C0" d="M578.2,490.3c-1.8,30.8-23.2,66.7-49.6,81.9c-26.3,15.2-47.9,4.2-49.9-24.4l8.3-4.8&#10;&#9;&#9;&#9;&#9;c1.9,23.4,19.8,32.3,41.6,19.8c21.8-12.6,39.6-42.1,41.3-67.6L578.2,490.3z"/>
		</g>
		<g>
			<path fill="#FED22C" d="M528.3,457.6c26.3-15.2,47.9-4.2,49.9,24.4l-8.3,4.8c-1.9-23.4-19.8-32.3-41.6-19.8&#10;&#9;&#9;&#9;&#9;c-21.8,12.6-39.6,42.1-41.3,67.6l-8.3,4.8C480.5,508.7,502,472.8,528.3,457.6z"/>
		</g>
		<g>
			<path fill="#F965A8" d="M662.8,380c8.7-5,16.9-7.2,24-6.8l-4.5,10.6c-5.8-0.2-12.5,1.6-19.5,5.7c-23,13.3-41.6,45.5-41.5,71.9&#10;&#9;&#9;&#9;&#9;c0,15.3,6.4,25.4,16.2,28.5l-4.5,10.6c-12.1-3.5-19.9-15.6-20-34.3C613,434.4,635.3,395.9,662.8,380z"/>
		</g>
		<g>
			<path fill="#4367C7" d="M692.9,374.2c12.1,3.5,19.9,15.6,20,34.3c0.1,31.6-22.2,70.2-49.7,86.1c-8.7,5-16.9,7.2-24,6.8l4.5-10.6&#10;&#9;&#9;&#9;&#9;c5.8,0.2,12.5-1.6,19.5-5.7c23-13.3,41.6-45.5,41.5-71.9c0-15.3-6.4-25.4-16.2-28.5L692.9,374.2z"/>
		</g>
		<g>
			<path fill="#F965A8" d="M352.5,620.6c1.9,23.4,19.8,32.3,41.6,19.8c13-7.5,24.5-21,32.1-36.1l6.8,1.4&#10;&#9;&#9;&#9;&#9;c-9.1,18.4-23.1,35-38.9,44.1c-26.3,15.2-47.9,4.2-49.9-24.4L352.5,620.6z"/>
		</g>
		<g>
			<path fill="#4367C7" d="M393.8,535.3c27.5-15.9,49.9-3.1,50,28.5c0,10.5-2.4,21.8-6.7,32.8l-6.8-1.4c3.4-8.9,5.3-18.1,5.3-26.6&#10;&#9;&#9;&#9;&#9;c-0.1-26.4-18.8-37.1-41.8-23.8c-21.8,12.6-39.6,42.1-41.3,67.6l-8.3,4.8C346,586.4,367.5,550.5,393.8,535.3z"/>
		</g>
	</g>
	<g>
		<path fill="#E9B488" d="M523.1,830l-1.4-0.1v-6.1c0,0,0,1.1-4.3,5.2s-4.4,10.8-4.4,10.8v22.9l7.9-1.6v-25.7c0,0,3.4-0.9,4.1-2.8&#10;&#9;&#9;&#9;c0,0,0,0,0-0.1C525.3,831.4,524.4,830.1,523.1,830z"/>
		<path fill="#FEFBF0" d="M462.6,1053.9c0,0-9.1,3.7-12.4,11.8c0,0-0.7,10.4,9.9,22.2s15,14.9,18.9,12c3.8-3-1.8-24.4-1.8-24.4&#10;&#9;&#9;&#9;l-3-10.8L462.6,1053.9z"/>
		<path fill="#FEFBF0" d="M492.7,1096l2.6,1.3c0,0,11.1,12.1,14.5,16.2s4.7,6.4,3.7,10.4c0,0-3,5-15.6,1.3&#10;&#9;&#9;&#9;c-12.6-3.7-23.4-19.9-23.4-19.9s-2-3.7,4-8.1L492.7,1096z"/>
		<path fill="#031E6C" d="M509,920.7c0,0,4,23.9,9.8,43.7c5.7,19.9,4.7,35.7,0,40.4c-4.7,4.7-23.6,36.7-29.6,43.1&#10;&#9;&#9;&#9;s-13.8,20.5-13.8,20.5s-12.1-2-12.8-14.5c0,0,11.8-25.4,24.7-41c13-15.6,14.6-20.6,14.6-20.6s-17.3-27.7-19.9-43.7&#10;&#9;&#9;&#9;c-2.6-16,5.2-24.2,5.2-24.2L509,920.7z"/>
		<path fill="#031E6C" d="M464.5,927.4c0,0-6.3,15.5-3.9,32.6c2.4,17.2,12.4,52.9,12.4,52.9s-4.3,17.2-2.4,35.9&#10;&#9;&#9;&#9;c1.9,18.7,7.7,48.5,7.7,48.5s9.8,5.7,16.8,0c0,0-4.7-66-5-73.7c-0.3-7.7,2.5-15.1,2.5-15.1s6.3-39.7,4.9-45.8&#10;&#9;&#9;&#9;c-1.3-6.1-8.4-42.1-8.4-42.1L464.5,927.4z"/>
		<path fill="#F965A8" d="M490.2,837.7c0,0,7.5-1.4,11,1.9c3.5,3.4,6.5,10.6,8.9,17.4c2.4,6.8,2.4,9.5,2.4,9.5v-7.4c0,0,5,1,8.4,1.3&#10;&#9;&#9;&#9;v24.2c0,0-1,7.1-5.7,6.7c-4.7-0.3-9.6-7.4-9.6-7.4s0.8,21.5,3.9,27.3c3,5.7,4,8.7,4,8.7s-6.4,14.8-19.5,14.8s-31-8.1-31-8.1&#10;&#9;&#9;&#9;s6.3-11.4,6.8-18.8c0,0-1.8,2.7-6.8-3.7c-5-6.4-10.6-29.7-8.7-42.7c0,0,1.3-7.6,17.5-16.5C471.7,845,490.1,846.8,490.2,837.7z"/>
		<path fill="#E9B488" d="M499.6,896.8c0,0,7-5.8,10.3-7.9c3.2-2.2,8-2.5,10.9-9.6c3-7,10.2-8.1,9.6-11.9c-0.5-3.8-10.8-2.2-14.3,0&#10;&#9;&#9;&#9;c-3.4,2.2-5.1,10-11.6,13.6c-6.5,3.6-8.7,4.1-8.7,4.1S493.2,892.5,499.6,896.8z"/>
		<path fill="#E9B488" d="M499.6,806.6c0,0,3.7,13.5,3,22.2c-0.7,8.7-1.5,10.8-1.5,10.8s-3.9,1-8.6,0v13.5c0,0-3,5-8.7,3.7&#10;&#9;&#9;&#9;c-5.7-1.3-12.1-11.8-12.1-11.8s5.7-4.5,5-13.2c0,0-5.4,1.1-6.7-6c-1.3-7.1,3.4-7.7,7.4-2.7C477.4,823.1,495.6,817.1,499.6,806.6z"/>
		<path fill="#713D23" d="M499.6,806.8l0.1-0.2c0,0,0-6.4-6.7-9.4s-21.2-3.4-27.6,6.1c-6.4,9.4-2.7,17.4-3.4,28.5s-3,15.9-10.8,19.9&#10;&#9;&#9;&#9;c-7.7,4-7.7,26.9,3.4,28.3s31.1-14.1,31.7-32.6c0.3-11,4.2-19.8,7.2-25.2C496.2,817.3,498.3,812.2,499.6,806.8z"/>
	</g>
	<path fill="#4367C7" d="M997.3,162.4c3.5-2,6.4-0.4,6.4,3.6l0.5,181.1c0,4-2.8,8.9-6.3,11L750.9,500.7c-3.5,2-6.4,0.4-6.4-3.6&#10;&#9;&#9;L744,316c0-4,2.8-9,6.3-11L997.3,162.4z"/>
	<path fill="#FFFFFF" d="M749,315.9c0-2.2,1.9-5.5,3.8-6.6l245.8-141.9l0.5,179.8c0,2.3-1.9,5.5-3.8,6.6L749.5,495.7L749,315.9z"/>
	<path fill="#F965A8" d="M749.4,455.6l0.1,40.1l245.8-141.9c2-1.1,3.8-4.4,3.8-6.6l-0.1-35.7L749.4,455.6z"/>
	<g>
		<path fill="#F965A8" d="M857,288.1c1.1-0.6,2.2-0.9,3.2-0.6l34.5,9.4c2.9,0.8,2.9,5.8,0,10L860.4,356c-1,1.4-2.1,2.4-3.2,3.1&#10;&#9;&#9;&#9;c-2.8,1.6-5.4,0.6-5.4-3.1l-0.1-29.3l-0.1-29.3C851.6,293.8,854.2,289.7,857,288.1z"/>
	</g>
	<g>
		<path fill="#E04492" d="M975.8,341.8c2.3-1.3,4.2-0.3,4.2,2.4s-1.9,5.9-4.2,7.2L772.8,468.7c-2.3,1.3-4.2,0.3-4.2-2.4&#10;&#9;&#9;&#9;c0-2.6,1.9-5.9,4.2-7.2L975.8,341.8z"/>
	</g>
	<path fill="#FFFFFF" d="M883.5,400.7c0-2.5-2.7-4-4.8-2.8l-106,61.2c-2.3,1.3-4.2,4.6-4.2,7.2c0,2.6,1.9,3.7,4.2,2.4L880,406.7&#10;&#9;&#9;C882.2,405.5,883.5,403.2,883.5,400.7L883.5,400.7z"/>
	<g>
		<path fill="#FFFFFF" d="M879.5,393.7c4.1-2.4,7.5-0.5,7.5,4.3c0,4.7-3.3,10.5-7.5,12.9c-4.1,2.4-7.5,0.5-7.5-4.3&#10;&#9;&#9;&#9;C872.1,401.9,875.4,396.1,879.5,393.7z"/>
	</g>
	<g>
		<path fill="#E9B488" d="M987.7,759c0,0-8.2-0.3-12.5-3.7c-4.2-3.4-6.1-5.5-6.9-10.2c-0.8-4.7,1.4-7.4,3.1-7.8&#10;&#9;&#9;&#9;c1.7-0.4,6,6.9,7.7,7.3c1.7,0.4-1.3-3.6,0.9-5.1s7.8,7.9,16.6,13.7C1005.4,759,987.7,759,987.7,759z"/>
		<path fill="#E9B488" d="M939.2,777.2c0,0-8.2-0.3-12.5-3.7c-4.2-3.4-6.1-5.5-6.9-10.2c-0.8-4.7,1.4-7.4,3.1-7.8&#10;&#9;&#9;&#9;c1.7-0.4,6,6.9,7.7,7.3c1.7,0.4-1.3-3.6,0.9-5.1s7.8,7.9,16.6,13.7C957,777.2,939.2,777.2,939.2,777.2z"/>
		<path fill="#FED22C" d="M972.7,741c0,0-3.3,8.4-5.2,22.9s-1.9,14.5-1.9,14.5l-16.7-9.7c0,0-10.3,2.5-10,11.6&#10;&#9;&#9;&#9;c0,0,18.1,13,24.1,16.6c6,3.6,9.7,7.8,14.8,2c5.1-5.8,9.3-25.1,9.2-27.5C986.9,769,972.7,741,972.7,741z"/>
		<g enable-background="new    ">
			<g>
				<path fill="#FFFFFF" d="M1010.2,716.4c10.4,6,10.5,15.8,0.1,21.8l-30.1,17.5c-10.4,6-27.3,6-37.7,0l-30.3-17.5&#10;&#9;&#9;&#9;&#9;&#9;c-10.4-6-10.5-15.8-0.1-21.8l30.1-17.5c10.4-6,27.3-6,37.7,0L1010.2,716.4z"/>
			</g>
			<path fill="#F2F2F2" d="M1010.3,738.3l-30.1,17.5c-10.4,6-27.3,6-37.7,0l-30.3-17.5c-5.3-3-7.9-7-7.9-11l-0.1,22.1&#10;&#9;&#9;&#9;&#9;c0,4,2.6,8,7.9,11l30.3,17.5c10.4,6,27.3,6,37.7,0l30.1-17.5c5.2-3,7.7-6.9,7.7-10.8l0.1-22.1&#10;&#9;&#9;&#9;&#9;C1018.1,731.3,1015.5,735.3,1010.3,738.3z"/>
		</g>
		<path fill="#FFFFFF" d="M988.4,971.6l-4.9,1.1c0,0-11.4-7.1-16.8-1.1c0,0-3.4,3.6,10.9,10.9c13.9,7.1,19.9,7.1,19.9,7.1&#10;&#9;&#9;&#9;s7.6-2.6,6.7-21.2h-11.4L988.4,971.6z"/>
		<g>
			<g>
				<path d="M 994 700.5 L 989.4000244140625 703.2000122070312 L 989.2999877929688 716.7999877929688 L 993.9000244140625 714.0999755859375 Z" fill="#2CC4A7"/>
				<path d="M 936.4000244140625 703.2000122070312 L 931.7999877929688 700.5 L 931.7999877929688 714.0999755859375 L 936.4000244140625 716.7999877929688 Z" fill="#2CC4A7"/>
				<path fill="#2CC4A7" d="M949.7,726.1c0-0.1,0-0.1,0-0.2c0-0.1,0-0.1,0-0.2c0-0.1,0-0.1,0-0.2c0-0.1,0-0.1,0-0.2&#10;&#9;&#9;&#9;&#9;&#9;c0-0.1,0-0.1,0.1-0.2c0-0.1,0-0.1,0.1-0.2c0-0.1,0-0.1,0.1-0.2c0-0.1,0.1-0.1,0.1-0.2c0-0.1,0.1-0.1,0.1-0.2&#10;&#9;&#9;&#9;&#9;&#9;c0-0.1,0.1-0.1,0.1-0.2c0-0.1,0.1-0.1,0.1-0.2c0-0.1,0.1-0.2,0.1-0.2c0,0,0.1-0.1,0.1-0.1c0.1-0.1,0.1-0.2,0.2-0.3&#10;&#9;&#9;&#9;&#9;&#9;c0,0,0.1-0.1,0.1-0.1c0.1-0.1,0.2-0.3,0.3-0.4c0,0,0.1-0.1,0.1-0.1c0.1-0.1,0.2-0.2,0.3-0.3c0,0,0.1-0.1,0.1-0.1&#10;&#9;&#9;&#9;&#9;&#9;c0.1-0.1,0.1-0.1,0.2-0.2c0.1-0.1,0.1-0.1,0.2-0.2c0.1-0.1,0.1-0.1,0.2-0.2c0.1,0,0.1-0.1,0.2-0.1c0.1-0.1,0.1-0.1,0.2-0.2&#10;&#9;&#9;&#9;&#9;&#9;c0.1,0,0.1-0.1,0.2-0.1c0.1-0.1,0.2-0.1,0.2-0.2c0.1-0.1,0.2-0.1,0.3-0.2c0.2-0.1,0.4-0.2,0.6-0.3c0.1,0,0.1-0.1,0.2-0.1&#10;&#9;&#9;&#9;&#9;&#9;c0.2-0.1,0.3-0.2,0.5-0.2c0.1,0,0.1-0.1,0.2-0.1c0.2-0.1,0.4-0.2,0.7-0.3c0,0,0.1,0,0.1,0c0.2-0.1,0.4-0.1,0.6-0.2&#10;&#9;&#9;&#9;&#9;&#9;c0.1,0,0.2-0.1,0.2-0.1c0.1,0,0.2-0.1,0.3-0.1c0.1,0,0.2-0.1,0.3-0.1c0.1,0,0.2-0.1,0.3-0.1c0.1,0,0.2,0,0.3-0.1&#10;&#9;&#9;&#9;&#9;&#9;c0.1,0,0.2-0.1,0.3-0.1c0.1,0,0.2,0,0.3-0.1c0.1,0,0.2,0,0.3-0.1c0.1,0,0.2,0,0.3,0c0.2,0,0.5-0.1,0.8-0.1c0,0,0.1,0,0.1,0&#10;&#9;&#9;&#9;&#9;&#9;c0.2,0,0.4-0.1,0.7-0.1c0.1,0,0.2,0,0.3,0c0.1,0,0.3,0,0.4,0c0.1,0,0.2,0,0.3,0c0.1,0,0.3,0,0.4,0c0.1,0,0.2,0,0.2,0&#10;&#9;&#9;&#9;&#9;&#9;c0.1,0,0.3,0,0.4,0c0.1,0,0.2,0,0.3,0c0.1,0,0.3,0,0.4,0c0.1,0,0.2,0,0.2,0c0.4,0,0.8,0,1.3,0.1c0,0,0,0,0,0&#10;&#9;&#9;&#9;&#9;&#9;c0.4,0,0.9,0.1,1.3,0.1c0,0,0.1,0,0.1,0c0.2,0,0.4,0.1,0.5,0.1c0.1,0,0.1,0,0.2,0c0.1,0,0.3,0.1,0.4,0.1c0.1,0,0.1,0,0.2,0&#10;&#9;&#9;&#9;&#9;&#9;c0.1,0,0.3,0.1,0.4,0.1c0.1,0,0.2,0,0.2,0.1c0.1,0,0.3,0.1,0.4,0.1c0.1,0,0.2,0,0.2,0.1c0.2,0.1,0.4,0.1,0.6,0.2&#10;&#9;&#9;&#9;&#9;&#9;c0,0,0.1,0,0.1,0c0.2,0.1,0.5,0.2,0.7,0.3c0,0,0.1,0,0.1,0.1c0.3,0.1,0.6,0.2,0.9,0.4c0,0,0.1,0,0.1,0c0.3,0.1,0.6,0.3,0.9,0.5&#10;&#9;&#9;&#9;&#9;&#9;c2.6,1.5,3.9,3.5,3.9,5.5l0-13.6c0-2-1.3-4-3.9-5.5c-0.3-0.2-0.6-0.3-0.9-0.5c0,0-0.1,0-0.1,0c-0.3-0.1-0.6-0.3-0.9-0.4&#10;&#9;&#9;&#9;&#9;&#9;c0,0-0.1,0-0.1,0c0,0,0,0-0.1,0c-0.2-0.1-0.5-0.2-0.7-0.3c0,0-0.1,0-0.1,0c-0.2-0.1-0.4-0.1-0.6-0.2c0,0-0.1,0-0.1,0&#10;&#9;&#9;&#9;&#9;&#9;c0,0-0.1,0-0.1,0c-0.1,0-0.3-0.1-0.4-0.1c-0.1,0-0.2,0-0.2-0.1c-0.1,0-0.3-0.1-0.4-0.1c-0.1,0-0.1,0-0.2,0c0,0,0,0,0,0&#10;&#9;&#9;&#9;&#9;&#9;c-0.1,0-0.3-0.1-0.4-0.1c-0.1,0-0.1,0-0.2,0c-0.2,0-0.4-0.1-0.5-0.1c0,0-0.1,0-0.1,0c0,0,0,0,0,0c-0.4-0.1-0.9-0.1-1.3-0.1&#10;&#9;&#9;&#9;&#9;&#9;c0,0,0,0,0,0c0,0,0,0,0,0c-0.4,0-0.8-0.1-1.3-0.1c0,0,0,0,0,0c-0.1,0-0.1,0-0.2,0c-0.1,0-0.3,0-0.4,0c-0.1,0-0.2,0-0.3,0&#10;&#9;&#9;&#9;&#9;&#9;c-0.1,0-0.3,0-0.4,0c0,0,0,0-0.1,0c-0.1,0-0.1,0-0.2,0c-0.1,0-0.3,0-0.4,0c-0.1,0-0.2,0-0.3,0c-0.1,0-0.3,0-0.4,0&#10;&#9;&#9;&#9;&#9;&#9;c0,0-0.1,0-0.1,0c0,0-0.1,0-0.1,0c-0.2,0-0.4,0-0.7,0.1c0,0-0.1,0-0.1,0c-0.3,0-0.5,0.1-0.8,0.1c0,0,0,0-0.1,0&#10;&#9;&#9;&#9;&#9;&#9;c-0.1,0-0.1,0-0.2,0c-0.1,0-0.2,0-0.3,0.1c-0.1,0-0.2,0-0.3,0.1c-0.1,0-0.2,0.1-0.3,0.1c-0.1,0-0.2,0-0.3,0.1&#10;&#9;&#9;&#9;&#9;&#9;c-0.1,0-0.2,0.1-0.3,0.1c-0.1,0-0.2,0.1-0.3,0.1c-0.1,0-0.2,0.1-0.3,0.1c0,0-0.1,0-0.1,0c0,0-0.1,0-0.1,0&#10;&#9;&#9;&#9;&#9;&#9;c-0.1,0-0.2,0.1-0.3,0.1l0-11.2l0-3.8l0,13.6l0,1.3c-0.1,0-0.2,0.1-0.2,0.1c0,0-0.1,0-0.1,0c-0.2,0.1-0.4,0.2-0.7,0.3&#10;&#9;&#9;&#9;&#9;&#9;c-0.1,0-0.1,0.1-0.2,0.1c-0.2,0.1-0.3,0.2-0.5,0.2c-0.1,0-0.1,0.1-0.2,0.1c-0.2,0.1-0.4,0.2-0.6,0.3c-0.1,0-0.1,0.1-0.2,0.1&#10;&#9;&#9;&#9;&#9;&#9;c0,0-0.1,0.1-0.1,0.1c-0.1,0.1-0.2,0.1-0.2,0.2c-0.1,0-0.1,0.1-0.2,0.1c-0.1,0.1-0.2,0.1-0.2,0.2c-0.1,0-0.1,0.1-0.2,0.1&#10;&#9;&#9;&#9;&#9;&#9;c-0.1,0.1-0.1,0.1-0.2,0.2c-0.1,0.1-0.1,0.1-0.2,0.2c-0.1,0.1-0.1,0.1-0.2,0.2c0,0-0.1,0-0.1,0.1c0,0,0,0-0.1,0.1&#10;&#9;&#9;&#9;&#9;&#9;c-0.1,0.1-0.2,0.2-0.3,0.3c0,0-0.1,0.1-0.1,0.1c-0.1,0.1-0.2,0.3-0.3,0.4c0,0,0,0,0,0c0,0,0,0.1-0.1,0.1&#10;&#9;&#9;&#9;&#9;&#9;c-0.1,0.1-0.1,0.2-0.2,0.3c0,0-0.1,0.1-0.1,0.1c-0.1,0.1-0.1,0.2-0.1,0.2c0,0,0,0,0,0.1c0,0,0,0.1,0,0.1c0,0.1-0.1,0.1-0.1,0.2&#10;&#9;&#9;&#9;&#9;&#9;c0,0.1-0.1,0.1-0.1,0.2c0,0.1-0.1,0.1-0.1,0.2c0,0,0,0.1,0,0.1c0,0,0,0.1,0,0.1c0,0.1,0,0.1-0.1,0.2c0,0.1,0,0.1-0.1,0.2&#10;&#9;&#9;&#9;&#9;&#9;c0,0.1,0,0.1,0,0.2c0,0,0,0.1,0,0.1c0,0,0,0,0,0.1c0,0.1,0,0.1,0,0.2c0,0.1,0,0.1,0,0.2c0,0.1,0,0.1,0,0.2c0,0,0,0.1,0,0.1&#10;&#9;&#9;&#9;&#9;&#9;c0,0,0,0.1,0,0.1l0,13.6c0-0.1,0-0.2,0-0.2C949.6,726.2,949.7,726.1,949.7,726.1z"/>
				<path fill="#2CC4A7" d="M993.6,716.9c-0.1,0.2-0.2,0.5-0.3,0.7c0,0,0,0.1-0.1,0.1c-0.1,0.2-0.2,0.4-0.3,0.7c0,0,0,0.1-0.1,0.1&#10;&#9;&#9;&#9;&#9;&#9;c-0.1,0.2-0.3,0.4-0.4,0.7c0,0,0,0,0,0c-0.1,0.2-0.3,0.4-0.4,0.6c0,0-0.1,0.1-0.1,0.1c-0.2,0.2-0.3,0.4-0.5,0.6&#10;&#9;&#9;&#9;&#9;&#9;c0,0-0.1,0.1-0.1,0.1c-0.1,0.2-0.3,0.3-0.4,0.5c-0.1,0.1-0.1,0.1-0.2,0.2c-0.2,0.2-0.3,0.3-0.5,0.5c0,0-0.1,0.1-0.1,0.1&#10;&#9;&#9;&#9;&#9;&#9;c-0.2,0.2-0.4,0.4-0.7,0.7l0,5.3l-5,2.9l-4.6-2.7c-0.5,0.2-1,0.4-1.5,0.5c-0.2,0.1-0.3,0.1-0.5,0.2c-0.3,0.1-0.5,0.2-0.8,0.2&#10;&#9;&#9;&#9;&#9;&#9;c-0.2,0.1-0.4,0.1-0.5,0.2c-0.3,0.1-0.6,0.2-0.9,0.2c-0.2,0-0.3,0.1-0.5,0.1c-0.3,0.1-0.7,0.2-1,0.2c-0.1,0-0.3,0.1-0.4,0.1&#10;&#9;&#9;&#9;&#9;&#9;c-0.5,0.1-0.9,0.2-1.4,0.3c-0.3,0.1-0.6,0.1-0.9,0.1c-0.1,0-0.3,0-0.4,0.1c-0.4,0.1-0.9,0.1-1.3,0.2l0,3.8l-13.6,0l0-3.8&#10;&#9;&#9;&#9;&#9;&#9;c-0.3,0-0.6-0.1-1-0.1c-0.3,0-0.6-0.1-0.9-0.1c-0.2,0-0.3-0.1-0.5-0.1c-0.4-0.1-0.7-0.1-1.1-0.2c-0.1,0-0.2,0-0.3-0.1&#10;&#9;&#9;&#9;&#9;&#9;c-0.5-0.1-1-0.2-1.5-0.3c-0.1,0-0.3-0.1-0.4-0.1c-0.4-0.1-0.7-0.2-1.1-0.3c-0.2,0-0.3-0.1-0.5-0.1c-0.3-0.1-0.7-0.2-1-0.3&#10;&#9;&#9;&#9;&#9;&#9;c-0.1,0-0.3-0.1-0.4-0.1c-0.5-0.2-0.9-0.3-1.4-0.5l-4.6,2.7l-5.1-2.9l0-5.3c-1.5-1.4-2.7-2.8-3.5-4.3c-0.3-0.5-0.5-1-0.7-1.5&#10;&#9;&#9;&#9;&#9;&#9;l0,0l-6.5,0l0-7.9l0,13.6l0,7.9l6.1,0l0,8.5l9.6,5.6l4.6-2.7c0.4,0.2,0.9,0.3,1.4,0.5c0.1,0,0.3,0.1,0.4,0.1&#10;&#9;&#9;&#9;&#9;&#9;c0.3,0.1,0.6,0.2,1,0.3c0.1,0,0.2,0.1,0.2,0.1c0.1,0,0.2,0,0.2,0.1c0.4,0.1,0.7,0.2,1.1,0.3c0.1,0,0.3,0.1,0.4,0.1&#10;&#9;&#9;&#9;&#9;&#9;c0.5,0.1,1,0.2,1.5,0.3c0,0,0,0,0,0c0.1,0,0.2,0,0.3,0.1c0.4,0.1,0.7,0.1,1.1,0.2c0.2,0,0.3,0.1,0.5,0.1&#10;&#9;&#9;&#9;&#9;&#9;c0.3,0.1,0.6,0.1,0.9,0.1c0.1,0,0.2,0,0.3,0c0.2,0,0.5,0.1,0.7,0.1l0,3.8l13.6,0l0-3.8c0.4-0.1,0.8-0.1,1.3-0.2&#10;&#9;&#9;&#9;&#9;&#9;c0.1,0,0.3,0,0.4-0.1c0.3,0,0.5-0.1,0.8-0.1c0,0,0,0,0,0c0.5-0.1,0.9-0.2,1.4-0.3c0.1,0,0.3-0.1,0.4-0.1c0.3-0.1,0.7-0.1,1-0.2&#10;&#9;&#9;&#9;&#9;&#9;c0.2,0,0.3-0.1,0.5-0.1c0.3-0.1,0.6-0.1,0.9-0.2c0.2,0,0.4-0.1,0.5-0.2c0.3-0.1,0.5-0.2,0.8-0.2c0.1,0,0.2-0.1,0.3-0.1&#10;&#9;&#9;&#9;&#9;&#9;c0.1,0,0.1,0,0.2-0.1c0.5-0.2,1-0.3,1.5-0.5l4.6,2.7l9.6-5.6l0-8.5l6,0l0-13.6L993.6,716.9z"/>
			</g>
			<path fill="#3AE0C0" d="M993.6,716.9l6.5,0l0-7.9l-6.5,0c-0.8-2-2.2-4-4.2-5.8l4.6-2.7l-9.6-5.6l-4.6,2.7&#10;&#9;&#9;&#9;&#9;c-3.1-1.2-6.6-2-10.1-2.4l0-3.8l-13.6,0l0,3.8c-3.5,0.5-6.9,1.3-10.1,2.4l-4.6-2.7l-9.6,5.6l4.6,2.7c-2,1.8-3.4,3.8-4.1,5.8&#10;&#9;&#9;&#9;&#9;l-6.5,0l0,7.9l6.5,0c0.8,2,2.2,4,4.2,5.8l-4.6,2.7l9.6,5.6l4.6-2.7c3.1,1.2,6.6,2,10.1,2.4l0,3.8l13.6,0l0-3.8&#10;&#9;&#9;&#9;&#9;c3.5-0.4,6.9-1.3,10.1-2.4l4.6,2.7l9.6-5.6l-4.6-2.7C991.5,720.9,992.9,718.9,993.6,716.9z M972.4,718.4c-5.2,3-13.6,3-18.8,0&#10;&#9;&#9;&#9;&#9;c-5.2-3-5.2-7.9-0.1-10.9c5.2-3,13.6-3,18.8,0C977.5,710.5,977.5,715.4,972.4,718.4z"/>
		</g>
		<path fill="#FFFFFF" d="M1008.4,957.2l-4.9,1.1c0,0-11.4-7.1-16.8-1.1c0,0-3.4,3.6,10.9,10.9c13.9,7.1,19.9,7.1,19.9,7.1&#10;&#9;&#9;&#9;s7.6-2.6,6.7-21.2h-11.4L1008.4,957.2z"/>
		<path fill="#031E6C" d="M980.2,815.9l-6.9,0.5c0,0-6.6,29.8,3.5,68.4s6.8,87.9,6.8,87.9s3.3,6,8.7,6c5.4,0,9.2-4.9,11.9-10.3&#10;&#9;&#9;&#9;v-10.9c0,0,4.9,6,10.9,6c6,0,9.2-3.8,9.2-3.8v-50.5c0,0-1.6-16.8-3.8-28.2c-2.2-11.4,7.6-39.6,5.4-57.5&#10;&#9;&#9;&#9;C1025.9,823.5,998,809.4,980.2,815.9z"/>
		<path fill="#E9B488" d="M981.4,690.6c0,0-2.7,21.7,0,25.5c2.7,3.8,13.6,0,13.6,0V728c0,0,3.8,4.9,8.7,3.3s8.7-6.5,8.7-6.5v-20.6&#10;&#9;&#9;&#9;L981.4,690.6z"/>
		<path fill="#FED22C" d="M994.9,728c0,0-19,7.1-22.2,13s-1.1,12.9,0,23.5c1.1,10.7,4.9,44.3,0.5,51.9c0,0,6.5,10.3,16.3,16.3&#10;&#9;&#9;&#9;s14.1,7.1,22.8,2.7c8.7-4.3,13.6-11.9,13.6-11.9s10.3-73.3,5.4-86.8c-4.9-13.6-8.4-13.1-19-11.9C1001.7,725.9,994.9,728,994.9,728&#10;&#9;&#9;&#9;z"/>
		<path fill="#FED22C" d="M1021.2,722.8c0,0-3.3,8.4-5.2,22.9c-1.9,14.5-1.9,14.5-1.9,14.5l-16.7-9.7c0,0-10.3,2.5-10,11.6&#10;&#9;&#9;&#9;c0,0,18.1,13,24.1,16.6c6,3.6,9.7,7.8,14.8,2c5.1-5.8,9.3-25.1,9.2-27.5C1035.3,750.8,1021.2,722.8,1021.2,722.8z"/>
		<path fill="#713D23" d="M989,697.6c0,0-5.4-2.2-7.6-7.1c-2.2-4.9-1.6-14.7,10.9-16.3c12.5-1.6,24.4,6,27.7,14.1&#10;&#9;&#9;&#9;c3.3,8.1,2.2,15.5,8.7,22.7s26,12.6,27.1,27.8c1.1,15.2-15.2,32-28.8,23.3c-13.6-8.7-27.8-24.4-25-42.9&#10;&#9;&#9;&#9;C1004.9,700.9,989,697.6,989,697.6z"/>
	</g>
	<g>
		<path d="M 853.7000122070312 999.5 L 817.0999755859375 1019.4000244140625 L 857.7999877929688 1050.699951171875 L 894.5 1030.800048828125 Z" fill="#FFFFFF"/>
		<path fill="#E9B488" d="M851.6,1054.1c0,0-5.7-1-8.9-2.2c-3.2-1.2-8.5-5.7-9.1-7.5c-0.6-1.8-1.4-9.1,0-10.7c1.4-1.6,6.5,4,8.6,5.7&#10;&#9;&#9;&#9;s2.1,1.8,2.1,1.8s-1.6-4.7-1.2-5.9c0.4-1.2,2.8-1.4,5.5,1.6s10.1,9.5,10.1,9.5L851.6,1054.1z"/>
		<path fill="#031E6C" d="M899.9,1245.7l-1.9,1.3c0,0-4.5,0.6-9.6-0.6c-5.1-1.3-10.9-1-10,3.9s9.3,8.7,12.9,10.3&#10;&#9;&#9;&#9;c3.5,1.6,10.6,3.9,11.6,5.1c1,1.3,2.6,3.2,8,1.9c5.5-1.3,5.7-3.5,5.7-3.5v-19.9L899.9,1245.7z"/>
		<path fill="#031E6C" d="M931.4,1230.6c0,0-6.4-3.2-8.7-2.9s-4.8,3.9,0,9s6.7,7.4,8.7,11.2c1.9,3.9,3.2,6.7,7.7,6.4&#10;&#9;&#9;&#9;c1.3-0.1,2.6-0.4,3.7-0.9c2.8-1.1,4.7-3.9,4.7-6.9v-10.3l-13.8-6.4L931.4,1230.6z"/>
		<path fill="#A78264" d="M887.1,1122l-1.5,4.9c0,0,0.5,28.5,5,49.1c4.5,20.6,7.4,71,7.4,71s1,4.8,7.1,5.1&#10;&#9;&#9;&#9;c6.1,0.3,12.2-3.5,12.2-3.5s1-29.9,0-47.5c-1-17.7-2-28.3,0.4-37.3c0,0,2.1,19.6,5.4,31.5s6.1,32.8,7.4,41.8c0,0,1.3,5.8,6.1,5.8&#10;&#9;&#9;&#9;s6.4-1,9.6-4.8c0,0,1.6-28.6,1.3-41.1s-7.1-29.9-7.1-29.9s1.6-45.3,1-57.5s-22.2-20.9-22.2-20.9L887.1,1122z"/>
		<path fill="#E9B488" d="M893.2,965.9v23.5c0,0-0.3,8,2.9,9.3c3.2,1.3,7.1,0,7.1,0v7.1c0,0,9.3,1.9,16.7-3.5v-7.4L908.3,971&#10;&#9;&#9;&#9;C908.3,971,896.4,963.6,893.2,965.9z"/>
		<path fill="#031E6C" d="M903.1,1005.7c0,0-10.3,3.9-16.4,9.6s-5.5,16.7-6.1,25.4c-0.6,8.7-1.9,14.5-1.9,14.5s-16.7-10-18.6-10.6&#10;&#9;&#9;&#9;c0,0-10.6,2.2-8,12.5c0,0,12.9,9,19.9,13.8c7.1,4.8,13.5,9,18,9c0,0-1.6,9-4.5,19.9c-2.9,10.9-1.9,26-1.9,26s11.6,6.4,21.8,5.5&#10;&#9;&#9;&#9;c10.3-1,14.5-4.2,14.5-4.2l4.8-19.3v16.1c0,0,11.9-5.8,16.7-14.5c0,0-0.6-18-1.9-24.1c-1.3-6.1,7.4-28.9,10-37.9&#10;&#9;&#9;&#9;c2.6-9-3.5-37.6-6.1-43.4c-2.6-5.8-12.9-11.2-23.5-6.1L903.1,1005.7z"/>
		<path fill="#713D23" d="M893.2,965.9c0,0-0.6-5.5,4.5-8.7c5.1-3.2,14.5-3.5,20.9,0c6.4,3.5,11.2,8.7,10.6,19.6&#10;&#9;&#9;&#9;c-0.6,10.9-9.3,19.6-9.3,19.6s-3.5,1-10.9-6.7s-9.1-17.7-10.9-20.9C896.2,965.6,893.2,965.9,893.2,965.9z"/>
	</g>
	<g>
		<g>
			<g>
				<path d="M 565.5999755859375 624.9000244140625 L 565.9000244140625 711.7999877929688 L 501.20001220703125 749.0999755859375 L 490.1000061035156 768.4000244140625 L 478.8999938964844 762 L 414.29998779296875 799.2999877929688 L 414 712.4000244140625 Z" fill="#FFFFFF"/>
			</g>
			<g>
				<path d="M 414.29998779296875 799.2999877929688 L 406.8999938964844 795 L 406.6000061035156 708.0999755859375 L 414 712.4000244140625 Z" fill="#DCE5FE"/>
			</g>
			<g>
				<path d="M 414 712.4000244140625 L 406.6000061035156 708.0999755859375 L 558.2000122070312 620.5999755859375 L 565.5999755859375 624.9000244140625 Z" fill="#DCE5FE"/>
			</g>
		</g>
		<g>
			<path fill="#A9D6FF" d="M433.3,740.4l113.2-64.8c1.4-0.8,2.5-2.7,2.5-4.3c0-1.6-1.1-2.3-2.5-1.5l-113.2,64.7&#10;&#9;&#9;&#9;&#9;c-1.4,0.8-2.5,2.7-2.5,4.4C430.8,740.6,431.9,741.2,433.3,740.4z"/>
			<path fill="#A9D6FF" d="M433.3,729.7l113.2-64.7c1.4-0.8,2.5-2.7,2.5-4.4c0-1.6-1.1-2.3-2.5-1.5l-113.2,64.8&#10;&#9;&#9;&#9;&#9;c-1.4,0.8-2.5,2.7-2.5,4.3C430.8,729.8,431.9,730.5,433.3,729.7z"/>
			<path fill="#A9D6FF" d="M433.4,751.2l113.2-64.7c1.4-0.8,2.5-2.7,2.5-4.4c0-1.6-1.1-2.3-2.5-1.5l-113.2,64.7&#10;&#9;&#9;&#9;&#9;c-1.4,0.8-2.5,2.7-2.5,4.4C430.8,751.3,432,752,433.4,751.2z"/>
			<path fill="#A9D6FF" d="M546.6,691.4l-113.2,64.8c-1.4,0.8-2.5,2.7-2.5,4.3c0,1.6,1.1,2.3,2.5,1.5l113.2-64.8&#10;&#9;&#9;&#9;&#9;c1.4-0.8,2.5-2.7,2.5-4.3C549.1,691.3,548,690.6,546.6,691.4z"/>
		</g>
	</g>
	<g>
		<g>
			<path d="M 594.5 852.4000244140625 L 594.7000122070312 922.7000122070312 L 583.5999755859375 929.0999755859375 L 583.4000244140625 858.7999877929688 Z" fill="#F965A8"/>
		</g>
		<g>
			<path d="M 613.4000244140625 796.5 L 613.7999877929688 911.7999877929688 L 603.2999877929688 917.7999877929688 L 603 802.5 Z" fill="#FED22C"/>
		</g>
		<g>
			<path d="M 636.7000122070312 799.2000122070312 L 637 898.4000244140625 L 624.7000122070312 905.5 L 624.4000244140625 806.2999877929688 Z" fill="#3AE0C0"/>
		</g>
		<g>
			<path d="M 655 845.4000244140625 L 655.0999755859375 887.9000244140625 L 644 894.2999877929688 L 643.9000244140625 851.9000244140625 Z" fill="#4367C7"/>
		</g>
	</g>
	<g>
		<g>
			<path d="M 607.7000122070312 1078.5 L 607.5999755859375 1079.0999755859375 L 665.0999755859375 1045.9000244140625 L 748.7999877929688 1094.5 L 752.7999877929688 1091.199951171875 L 755.0999755859375 1090.5999755859375 L 755.0999755859375 1098.199951171875 L 688.7999877929688 1136.5 L 598.7999877929688 1084.199951171875 L 598.7999877929688 1076.800048828125 Z" fill="#F2F2F2"/>
			<path d="M 598.7999877929688 1076.800048828125 L 688.7999877929688 1129.0999755859375 L 755.0999755859375 1090.9000244140625 L 665.0999755859375 1038.5 Z" fill="#FFFFFF"/>
			<path d="M 681.5 1119.0999755859375 L 737.7999877929688 1086.5 L 741.7999877929688 1088.9000244140625 L 685.5 1121.4000244140625 Z" fill="#A9D6FF"/>
			<path d="M 672.7999877929688 1114 L 729.0999755859375 1081.5 L 733.2000122070312 1083.9000244140625 L 676.7999877929688 1116.4000244140625 Z" fill="#A9D6FF"/>
			<path d="M 664.0999755859375 1109 L 720.5 1076.5 L 724.5 1078.800048828125 L 668.2000122070312 1111.300048828125 Z" fill="#A9D6FF"/>
			<path d="M 655.5 1104 L 711.7999877929688 1071.4000244140625 L 715.7999877929688 1073.800048828125 L 659.5 1106.300048828125 Z" fill="#A9D6FF"/>
			<path d="M 646.7999877929688 1098.9000244140625 L 703.0999755859375 1066.4000244140625 L 707.2000122070312 1068.699951171875 L 650.7999877929688 1101.300048828125 Z" fill="#A9D6FF"/>
			<path d="M 638.0999755859375 1093.9000244140625 L 694.5 1061.4000244140625 L 698.5 1063.699951171875 L 642.2000122070312 1096.199951171875 Z" fill="#A9D6FF"/>
			<path d="M 629.5 1088.800048828125 L 685.7999877929688 1056.300048828125 L 689.7999877929688 1058.699951171875 L 633.5 1091.199951171875 Z" fill="#A9D6FF"/>
			<path d="M 620.7999877929688 1083.800048828125 L 677.0999755859375 1051.300048828125 L 681.2000122070312 1053.5999755859375 L 624.7999877929688 1086.199951171875 Z" fill="#A9D6FF"/>
			<path d="M 616.2000122070312 1081.0999755859375 L 612.0999755859375 1078.800048828125 L 668.4000244140625 1046.199951171875 L 672.5 1048.5999755859375 Z" fill="#A9D6FF"/>
		</g>
		<g>
			<path d="M 607.7000122070312 1066.9000244140625 L 607.5999755859375 1067.5999755859375 L 665.0999755859375 1034.4000244140625 L 748.7999877929688 1083 L 752.7999877929688 1079.5999755859375 L 755.0999755859375 1079 L 755.0999755859375 1086.699951171875 L 688.7999877929688 1124.9000244140625 L 598.7999877929688 1072.5999755859375 L 598.7999877929688 1065.300048828125 Z" fill="#F2F2F2"/>
			<path d="M 598.7999877929688 1065.300048828125 L 688.7999877929688 1117.5999755859375 L 755.0999755859375 1079.300048828125 L 665.0999755859375 1027 Z" fill="#FFFFFF"/>
			<path d="M 681.5 1107.5 L 737.7999877929688 1075 L 741.7999877929688 1077.300048828125 L 685.5 1109.9000244140625 Z" fill="#A9D6FF"/>
			<path d="M 672.7999877929688 1102.5 L 729.0999755859375 1070 L 733.2000122070312 1072.300048828125 L 676.7999877929688 1104.800048828125 Z" fill="#A9D6FF"/>
			<path d="M 664.0999755859375 1097.4000244140625 L 720.5 1064.9000244140625 L 724.5 1067.300048828125 L 668.2000122070312 1099.800048828125 Z" fill="#A9D6FF"/>
			<path d="M 655.5 1092.4000244140625 L 711.7999877929688 1059.9000244140625 L 715.7999877929688 1062.199951171875 L 659.5 1094.800048828125 Z" fill="#A9D6FF"/>
			<path d="M 646.7999877929688 1087.4000244140625 L 703.0999755859375 1054.9000244140625 L 707.2000122070312 1057.199951171875 L 650.7999877929688 1089.699951171875 Z" fill="#A9D6FF"/>
			<path d="M 638.0999755859375 1082.300048828125 L 694.5 1049.800048828125 L 698.5 1052.199951171875 L 642.2000122070312 1084.699951171875 Z" fill="#A9D6FF"/>
			<path d="M 629.5 1077.300048828125 L 685.7999877929688 1044.800048828125 L 689.7999877929688 1047.0999755859375 L 633.5 1079.5999755859375 Z" fill="#A9D6FF"/>
			<path d="M 620.7999877929688 1072.300048828125 L 677.0999755859375 1039.699951171875 L 681.2000122070312 1042.0999755859375 L 624.7999877929688 1074.5999755859375 Z" fill="#A9D6FF"/>
			<path d="M 616.2000122070312 1069.5999755859375 L 612.0999755859375 1067.199951171875 L 668.4000244140625 1034.699951171875 L 672.5 1037 Z" fill="#A9D6FF"/>
		</g>
		<g>
			<path d="M 607.7000122070312 1055.4000244140625 L 607.5999755859375 1056 L 665.0999755859375 1022.7999877929688 L 748.7999877929688 1071.4000244140625 L 752.7999877929688 1068.0999755859375 L 755.0999755859375 1067.5 L 755.0999755859375 1075.0999755859375 L 688.7999877929688 1113.4000244140625 L 598.7999877929688 1061.0999755859375 L 598.7999877929688 1053.699951171875 Z" fill="#F2F2F2"/>
			<path d="M 598.7999877929688 1053.699951171875 L 688.7999877929688 1106 L 755.0999755859375 1067.800048828125 L 665.0999755859375 1015.5 Z" fill="#FFFFFF"/>
			<path d="M 681.5 1096 L 737.7999877929688 1063.5 L 741.7999877929688 1065.800048828125 L 685.5 1098.300048828125 Z" fill="#A9D6FF"/>
			<path d="M 672.7999877929688 1090.9000244140625 L 729.0999755859375 1058.4000244140625 L 733.2000122070312 1060.800048828125 L 676.7999877929688 1093.300048828125 Z" fill="#A9D6FF"/>
			<path d="M 664.0999755859375 1085.9000244140625 L 720.5 1053.4000244140625 L 724.5 1055.699951171875 L 668.2000122070312 1088.199951171875 Z" fill="#A9D6FF"/>
			<path d="M 655.5 1080.9000244140625 L 711.7999877929688 1048.300048828125 L 715.7999877929688 1050.699951171875 L 659.5 1083.199951171875 Z" fill="#A9D6FF"/>
			<path d="M 646.7999877929688 1075.800048828125 L 703.0999755859375 1043.300048828125 L 707.2000122070312 1045.5999755859375 L 650.7999877929688 1078.199951171875 Z" fill="#A9D6FF"/>
			<path d="M 638.0999755859375 1070.800048828125 L 694.5 1038.300048828125 L 698.5 1040.5999755859375 L 642.2000122070312 1073.0999755859375 Z" fill="#A9D6FF"/>
			<path d="M 629.5 1065.800048828125 L 685.7999877929688 1033.199951171875 L 689.7999877929688 1035.5999755859375 L 633.5 1068.0999755859375 Z" fill="#A9D6FF"/>
			<path d="M 620.7999877929688 1060.699951171875 L 677.0999755859375 1028.199951171875 L 681.2000122070312 1030.5 L 624.7999877929688 1063.0999755859375 Z" fill="#A9D6FF"/>
			<path d="M 616.2000122070312 1058 L 612.0999755859375 1055.699951171875 L 668.4000244140625 1023.2000122070312 L 672.5 1025.5 Z" fill="#A9D6FF"/>
		</g>
		<g>
			<path d="M 607.7000122070312 1043.800048828125 L 607.5999755859375 1044.5 L 665.0999755859375 1011.2999877929688 L 748.7999877929688 1059.9000244140625 L 752.7999877929688 1056.5 L 755.0999755859375 1055.9000244140625 L 755.0999755859375 1063.5999755859375 L 688.7999877929688 1101.800048828125 L 598.7999877929688 1049.5 L 598.7999877929688 1042.199951171875 Z" fill="#F2F2F2"/>
			<path d="M 598.7999877929688 1042.199951171875 L 688.7999877929688 1094.5 L 755.0999755859375 1056.199951171875 L 665.0999755859375 1003.9000244140625 Z" fill="#FFFFFF"/>
			<path d="M 681.5 1084.4000244140625 L 737.7999877929688 1051.9000244140625 L 741.7999877929688 1054.199951171875 L 685.5 1086.800048828125 Z" fill="#A9D6FF"/>
			<path d="M 672.7999877929688 1079.4000244140625 L 729.0999755859375 1046.9000244140625 L 733.2000122070312 1049.199951171875 L 676.7999877929688 1081.699951171875 Z" fill="#A9D6FF"/>
			<path d="M 664.0999755859375 1074.4000244140625 L 720.5 1041.800048828125 L 724.5 1044.199951171875 L 668.2000122070312 1076.699951171875 Z" fill="#A9D6FF"/>
			<path d="M 655.5 1069.300048828125 L 711.7999877929688 1036.800048828125 L 715.7999877929688 1039.0999755859375 L 659.5 1071.699951171875 Z" fill="#A9D6FF"/>
			<path d="M 646.7999877929688 1064.300048828125 L 703.0999755859375 1031.800048828125 L 707.2000122070312 1034.0999755859375 L 650.7999877929688 1066.5999755859375 Z" fill="#A9D6FF"/>
			<path d="M 638.0999755859375 1059.199951171875 L 694.5 1026.699951171875 L 698.5 1029.0999755859375 L 642.2000122070312 1061.5999755859375 Z" fill="#A9D6FF"/>
			<path d="M 629.5 1054.199951171875 L 685.7999877929688 1021.7000122070312 L 689.7999877929688 1024 L 633.5 1056.5 Z" fill="#A9D6FF"/>
			<path d="M 620.7999877929688 1049.199951171875 L 677.0999755859375 1016.5999755859375 L 681.2000122070312 1019 L 624.7999877929688 1051.5 Z" fill="#A9D6FF"/>
			<path d="M 616.2000122070312 1046.5 L 612.0999755859375 1044.0999755859375 L 668.4000244140625 1011.5999755859375 L 672.5 1014 Z" fill="#A9D6FF"/>
		</g>
		<g>
			<path d="M 607.7000122070312 1032.300048828125 L 607.5999755859375 1032.9000244140625 L 665.0999755859375 999.7000122070312 L 748.7999877929688 1048.300048828125 L 752.7999877929688 1045 L 755.0999755859375 1044.4000244140625 L 755.0999755859375 1052 L 688.7999877929688 1090.300048828125 L 598.7999877929688 1038 L 598.7999877929688 1030.5999755859375 Z" fill="#F2F2F2"/>
			<path d="M 598.7999877929688 1030.5999755859375 L 688.7999877929688 1082.9000244140625 L 755.0999755859375 1044.699951171875 L 665.0999755859375 992.4000244140625 Z" fill="#FFFFFF"/>
			<path d="M 681.5 1072.9000244140625 L 737.7999877929688 1040.4000244140625 L 741.7999877929688 1042.699951171875 L 685.5 1075.199951171875 Z" fill="#A9D6FF"/>
			<path d="M 672.7999877929688 1067.800048828125 L 729.0999755859375 1035.300048828125 L 733.2000122070312 1037.699951171875 L 676.7999877929688 1070.199951171875 Z" fill="#A9D6FF"/>
			<path d="M 664.0999755859375 1062.800048828125 L 720.5 1030.300048828125 L 724.5 1032.5999755859375 L 668.2000122070312 1065.199951171875 Z" fill="#A9D6FF"/>
			<path d="M 655.5 1057.800048828125 L 711.7999877929688 1025.199951171875 L 715.7999877929688 1027.5999755859375 L 659.5 1060.0999755859375 Z" fill="#A9D6FF"/>
			<path d="M 646.7999877929688 1052.699951171875 L 703.0999755859375 1020.2000122070312 L 707.2000122070312 1022.5999755859375 L 650.7999877929688 1055.0999755859375 Z" fill="#A9D6FF"/>
			<path d="M 638.0999755859375 1047.699951171875 L 694.5 1015.2000122070312 L 698.5 1017.5 L 642.2000122070312 1050 Z" fill="#A9D6FF"/>
			<path d="M 629.5 1042.699951171875 L 685.7999877929688 1010.0999755859375 L 689.7999877929688 1012.5 L 633.5 1045 Z" fill="#A9D6FF"/>
			<path d="M 620.7999877929688 1037.5999755859375 L 677.0999755859375 1005.0999755859375 L 681.2000122070312 1007.4000244140625 L 624.7999877929688 1040 Z" fill="#A9D6FF"/>
			<path d="M 616.2000122070312 1034.9000244140625 L 612.0999755859375 1032.5999755859375 L 668.4000244140625 1000.0999755859375 L 672.5 1002.4000244140625 Z" fill="#A9D6FF"/>
		</g>
		<g>
			<path d="M 607.7000122070312 1020.7000122070312 L 607.5999755859375 1021.4000244140625 L 665.0999755859375 988.2000122070312 L 748.7999877929688 1036.800048828125 L 752.7999877929688 1033.5 L 755.0999755859375 1032.800048828125 L 755.0999755859375 1040.5 L 688.7999877929688 1078.699951171875 L 598.7999877929688 1026.4000244140625 L 598.7999877929688 1019.0999755859375 Z" fill="#F2F2F2"/>
			<path d="M 598.7999877929688 1019.0999755859375 L 688.7999877929688 1071.4000244140625 L 755.0999755859375 1033.0999755859375 L 665.0999755859375 980.7999877929688 Z" fill="#FFFFFF"/>
			<path d="M 681.5 1061.300048828125 L 737.7999877929688 1028.800048828125 L 741.7999877929688 1031.199951171875 L 685.5 1063.699951171875 Z" fill="#A9D6FF"/>
			<path d="M 672.7999877929688 1056.300048828125 L 729.0999755859375 1023.7999877929688 L 733.2000122070312 1026.0999755859375 L 676.7999877929688 1058.5999755859375 Z" fill="#A9D6FF"/>
			<path d="M 664.0999755859375 1051.300048828125 L 720.5 1018.7000122070312 L 724.5 1021.0999755859375 L 668.2000122070312 1053.5999755859375 Z" fill="#A9D6FF"/>
			<path d="M 655.5 1046.199951171875 L 711.7999877929688 1013.7000122070312 L 715.7999877929688 1016 L 659.5 1048.5999755859375 Z" fill="#A9D6FF"/>
			<path d="M 646.7999877929688 1041.199951171875 L 703.0999755859375 1008.7000122070312 L 707.2000122070312 1011 L 650.7999877929688 1043.5 Z" fill="#A9D6FF"/>
			<path d="M 638.0999755859375 1036.0999755859375 L 694.5 1003.5999755859375 L 698.5 1006 L 642.2000122070312 1038.5 Z" fill="#A9D6FF"/>
			<path d="M 629.5 1031.0999755859375 L 685.7999877929688 998.5999755859375 L 689.7999877929688 1000.9000244140625 L 633.5 1033.5 Z" fill="#A9D6FF"/>
			<path d="M 620.7999877929688 1026.0999755859375 L 677.0999755859375 993.5999755859375 L 681.2000122070312 995.9000244140625 L 624.7999877929688 1028.4000244140625 Z" fill="#A9D6FF"/>
			<path d="M 616.2000122070312 1023.4000244140625 L 612.0999755859375 1021 L 668.4000244140625 988.5 L 672.5 990.9000244140625 Z" fill="#A9D6FF"/>
		</g>
	</g>
	<g>
		<g>
			<path fill="#313747" d="M716.5,1020.2c0.2,0.7,0.3,1.5,0.3,2.3c0,0.8-0.1,1.5-0.3,2.3l5.7,0l0-4.6H716.5z"/>
		</g>
		<g>
			<path d="M 716.5 1024.699951171875 L 716.5 1030.300048828125 L 722.2000122070312 1030.300048828125 L 722.2000122070312 1024.699951171875 Z" fill="#232935"/>
		</g>
		<g>
			<path d="M 722.2000122070312 1025.9000244140625 L 722.2000122070312 1031.5 L 781.5999755859375 1031.5 L 781.5999755859375 1025.9000244140625 Z" fill="#E54897"/>
		</g>
		<g>
			<path d="M 722.2000122070312 1019 L 722.2000122070312 1020.2000122070312 L 722.2000122070312 1024.699951171875 L 722.2000122070312 1025.9000244140625 L 781.5999755859375 1025.9000244140625 L 781.7000122070312 1019 Z" fill="#F965A8"/>
		</g>
		<path fill="#E54897" d="M687.4,1039.4c8.1,0,15.4-1.9,20.7-5c4.4-2.6,7.5-5.9,8.4-9.7c0.2-0.7,0.3-1.5,0.3-2.3c0,0,0-0.1,0-0.1&#10;&#9;&#9;&#9;l0,5.6c0,0,0,0.1,0,0.1c0,0.8-0.1,1.5-0.3,2.3c-0.9,3.8-3.9,7.1-8.4,9.7c-5.3,3.1-12.7,5-20.7,5c-16.2,0-29.2-7.6-29.2-17l0-5.6&#10;&#9;&#9;&#9;C658.2,1031.8,671.2,1039.4,687.4,1039.4z"/>
		<path fill="#DCF8FF" d="M670.5,1012.6c-4.4,2.5-7.1,6-7.1,9.9c0,3.9,2.7,7.3,7,9.9c4.3,2.5,10.4,4.1,17,4.1c6.6,0,12.7-1.6,17-4.1&#10;&#9;&#9;&#9;c4.4-2.5,7.1-6,7.1-9.9c0-3.9-2.7-7.3-7-9.9c-4.3-2.5-10.4-4.1-17-4.1C680.9,1008.5,674.9,1010.1,670.5,1012.6z"/>
		<path fill="#F965A8" d="M658.2,1022.4c-0.1,9.4,13,17,29.2,17c8.1,0,15.4-1.9,20.7-5c4.4-2.6,7.5-5.9,8.4-9.7&#10;&#9;&#9;&#9;c0.2-0.7,0.3-1.5,0.3-2.3c0-0.8-0.1-1.5-0.3-2.3c-1.9-8.3-14.1-14.7-28.9-14.7c-8.1,0-15.4,1.9-20.7,5&#10;&#9;&#9;&#9;C661.5,1013.5,658.2,1017.8,658.2,1022.4z M663.4,1022.4c0-3.9,2.7-7.3,7.1-9.9c4.4-2.5,10.4-4.1,17-4.1c6.6,0,12.7,1.6,17,4.1&#10;&#9;&#9;&#9;c4.3,2.5,7,6,7,9.9c0,3.9-2.7,7.3-7.1,9.9c-4.4,2.5-10.4,4.1-17,4.1c-6.6,0-12.7-1.6-17-4.1&#10;&#9;&#9;&#9;C666.1,1029.8,663.4,1026.3,663.4,1022.4z"/>
		<path fill="#FFFFFF" d="M686.6,1036.4c-4.4-0.1-8.4-0.8-11.9-2.1l33.3-19.2c2.1,2,3.4,4.4,3.6,6.9L686.6,1036.4z"/>
		<path fill="#FFFFFF" d="M694.6,1009.1c3.7,0.7,7,1.8,9.7,3.3l-34.1,19.7c-2.6-1.6-4.6-3.5-5.7-5.6L694.6,1009.1z"/>
	</g>
	<g>
		<g>
			<path fill="#E5AC45" d="M913.7,887.2c0,0.1,0,0.3,0,0.4c0,0.1,0,0.2,0,0.3c0,0.1,0,0.3-0.1,0.4c0,0.1,0,0.2-0.1,0.3&#10;&#9;&#9;&#9;&#9;c0,0.1-0.1,0.2-0.1,0.4c0,0.1-0.1,0.2-0.1,0.3c0,0.1-0.1,0.2-0.1,0.4c0,0.1-0.1,0.2-0.1,0.3c-0.1,0.1-0.1,0.3-0.2,0.4&#10;&#9;&#9;&#9;&#9;c0,0.1-0.1,0.2-0.2,0.3c-0.1,0.1-0.1,0.3-0.2,0.4c-0.1,0.1-0.1,0.2-0.2,0.3c-0.1,0.2-0.2,0.3-0.3,0.5c-0.1,0.1-0.1,0.2-0.2,0.3&#10;&#9;&#9;&#9;&#9;c-0.1,0.2-0.2,0.3-0.4,0.5c-0.1,0.1-0.1,0.1-0.2,0.2c-0.2,0.3-0.4,0.5-0.7,0.8c-0.1,0.1-0.1,0.1-0.2,0.2&#10;&#9;&#9;&#9;&#9;c-0.2,0.2-0.4,0.4-0.6,0.6c-0.1,0.1-0.2,0.2-0.3,0.3c-0.1,0.1-0.2,0.2-0.4,0.3c-0.1,0.1-0.2,0.2-0.4,0.3&#10;&#9;&#9;&#9;&#9;c-0.1,0.1-0.3,0.2-0.4,0.3c-0.1,0.1-0.2,0.2-0.4,0.3c-0.1,0.1-0.3,0.2-0.4,0.3c-0.1,0.1-0.3,0.2-0.4,0.3&#10;&#9;&#9;&#9;&#9;c-0.2,0.1-0.3,0.2-0.5,0.3c-0.2,0.1-0.4,0.2-0.6,0.4c-0.6,0.3-1.1,0.6-1.7,0.9c-0.2,0.1-0.3,0.1-0.5,0.2&#10;&#9;&#9;&#9;&#9;c-0.5,0.2-1.1,0.5-1.6,0.7c-0.1,0-0.1,0.1-0.2,0.1c-0.6,0.2-1.2,0.4-1.8,0.6c-0.4,0.1-0.9,0.3-1.3,0.4c-0.3,0.1-0.7,0.2-1,0.3&#10;&#9;&#9;&#9;&#9;c-0.5,0.1-0.9,0.2-1.4,0.3c-0.3,0.1-0.7,0.1-1,0.2c-0.1,0-0.3,0-0.4,0.1c-0.6,0.1-1.2,0.2-1.8,0.3c-0.2,0-0.3,0-0.5,0.1&#10;&#9;&#9;&#9;&#9;c-0.3,0-0.7,0.1-1,0.1c-0.6,0-1.1,0.1-1.7,0.1c-0.4,0-0.7,0-1.1,0c-0.5,0-0.9,0-1.4,0c-0.4,0-0.8,0-1.2,0c-0.4,0-0.9,0-1.3-0.1&#10;&#9;&#9;&#9;&#9;c-0.4,0-0.8-0.1-1.2-0.1c-0.4,0-0.9-0.1-1.3-0.1c-0.4,0-0.8-0.1-1.1-0.2c-0.5-0.1-0.9-0.2-1.4-0.2c-0.4-0.1-0.7-0.1-1.1-0.2&#10;&#9;&#9;&#9;&#9;c-0.5-0.1-1.1-0.2-1.6-0.4c-0.3-0.1-0.7-0.2-1-0.3c-0.2-0.1-0.4-0.1-0.5-0.2c-0.5-0.2-1-0.3-1.6-0.5c-0.1-0.1-0.3-0.1-0.4-0.2&#10;&#9;&#9;&#9;&#9;c-0.5-0.2-0.9-0.4-1.4-0.6c-0.2-0.1-0.4-0.2-0.7-0.3c-0.6-0.3-1.3-0.6-1.9-1c-3.5-2-5.7-4.4-6.8-7c-0.5-1.2-0.7-2.4-0.7-3.5&#10;&#9;&#9;&#9;&#9;l0,7.2c0,3.8,2.5,7.6,7.5,10.5c0.6,0.3,1.2,0.7,1.9,1c0.2,0.1,0.4,0.2,0.7,0.3c0.4,0.2,0.8,0.3,1.2,0.5c0.1,0,0.1,0,0.2,0.1&#10;&#9;&#9;&#9;&#9;c0.1,0.1,0.3,0.1,0.4,0.2c0.5,0.2,1,0.4,1.6,0.5c0.2,0.1,0.4,0.1,0.5,0.2c0.1,0,0.2,0.1,0.4,0.1c0.2,0.1,0.4,0.1,0.7,0.2&#10;&#9;&#9;&#9;&#9;c0.5,0.1,1.1,0.3,1.6,0.4c0.1,0,0.3,0.1,0.4,0.1c0.2,0,0.4,0.1,0.6,0.1c0.4,0.1,0.9,0.2,1.4,0.2c0.2,0,0.4,0.1,0.5,0.1&#10;&#9;&#9;&#9;&#9;c0.2,0,0.4,0,0.6,0.1c0.4,0.1,0.8,0.1,1.3,0.1c0.2,0,0.4,0.1,0.6,0.1c0.2,0,0.4,0,0.6,0c0.4,0,0.9,0.1,1.3,0.1c0.2,0,0.4,0,0.6,0&#10;&#9;&#9;&#9;&#9;c0.2,0,0.3,0,0.5,0c0.5,0,0.9,0,1.4,0c0.2,0,0.5,0,0.7,0c0.1,0,0.3,0,0.4,0c0.6,0,1.2-0.1,1.7-0.1c0.2,0,0.5,0,0.7,0&#10;&#9;&#9;&#9;&#9;c0.1,0,0.2,0,0.3,0c0.2,0,0.3,0,0.5-0.1c0.6-0.1,1.2-0.2,1.8-0.3c0.1,0,0.3,0,0.4-0.1c0.1,0,0.1,0,0.2,0c0.3-0.1,0.5-0.1,0.8-0.2&#10;&#9;&#9;&#9;&#9;c0.5-0.1,1-0.2,1.4-0.3c0.3-0.1,0.7-0.2,1-0.3c0.4-0.1,0.9-0.2,1.3-0.4c0.1,0,0.2-0.1,0.3-0.1c0.5-0.2,1-0.4,1.6-0.5&#10;&#9;&#9;&#9;&#9;c0.1,0,0.1-0.1,0.2-0.1c0.6-0.2,1.1-0.5,1.6-0.7c0.2-0.1,0.3-0.1,0.5-0.2c0.6-0.3,1.2-0.6,1.7-0.9c0.1-0.1,0.2-0.1,0.3-0.2&#10;&#9;&#9;&#9;&#9;c0.1-0.1,0.2-0.1,0.3-0.2c0.2-0.1,0.3-0.2,0.5-0.3c0.1-0.1,0.3-0.2,0.4-0.3c0.1-0.1,0.3-0.2,0.4-0.3c0.1-0.1,0.3-0.2,0.4-0.3&#10;&#9;&#9;&#9;&#9;c0.1-0.1,0.3-0.2,0.4-0.3c0.1-0.1,0.2-0.2,0.4-0.3c0.1-0.1,0.2-0.2,0.4-0.3c0,0,0.1-0.1,0.2-0.1c0,0,0.1-0.1,0.1-0.1&#10;&#9;&#9;&#9;&#9;c0.2-0.2,0.4-0.4,0.6-0.6c0.1-0.1,0.1-0.1,0.2-0.2c0.2-0.3,0.5-0.5,0.7-0.8c0,0,0,0,0,0c0-0.1,0.1-0.1,0.1-0.2&#10;&#9;&#9;&#9;&#9;c0.1-0.2,0.2-0.3,0.4-0.5c0.1-0.1,0.1-0.2,0.2-0.3c0.1-0.2,0.2-0.3,0.3-0.5c0,0,0.1-0.1,0.1-0.1c0-0.1,0.1-0.1,0.1-0.2&#10;&#9;&#9;&#9;&#9;c0.1-0.1,0.1-0.3,0.2-0.4c0.1-0.1,0.1-0.2,0.2-0.3c0.1-0.1,0.1-0.3,0.2-0.4c0-0.1,0.1-0.1,0.1-0.2c0-0.1,0-0.1,0.1-0.2&#10;&#9;&#9;&#9;&#9;c0-0.1,0.1-0.2,0.1-0.4c0-0.1,0.1-0.2,0.1-0.3c0-0.1,0.1-0.2,0.1-0.4c0-0.1,0-0.1,0-0.2c0,0,0-0.1,0-0.1c0-0.1,0-0.3,0.1-0.4&#10;&#9;&#9;&#9;&#9;c0-0.1,0-0.2,0-0.3c0-0.1,0-0.3,0-0.4c0-0.1,0-0.2,0-0.2c0-0.1,0-0.1,0-0.2l0-7.2C913.7,886.9,913.7,887,913.7,887.2z"/>
			<g>
				<path fill="#F2C05B" d="M906.2,876.2c10,5.8,10.1,15.2,0.1,20.9s-26.1,5.8-36.2,0c-10-5.8-10.1-15.2-0.1-20.9&#10;&#9;&#9;&#9;&#9;&#9;S896.2,870.4,906.2,876.2z"/>
			</g>
			<g>
				<path fill="#EC8659" d="M896.5,885.1c2.2,1.3,2.5,3.3,0.2,5.2l2.5,1.5l-2.4,1.4l-2.4-1.4c-1.7,0.9-3.8,1.6-5.2,1.8l-2.2-2.1&#10;&#9;&#9;&#9;&#9;&#9;c1.6-0.3,3.5-0.8,5.1-1.7c1.4-0.8,1.8-1.7,0.8-2.2c-0.9-0.5-2.3-0.4-4.7,0.3c-3.5,1-6.6,1.3-8.9,0c-2.2-1.3-2.4-3.1-0.2-4.9&#10;&#9;&#9;&#9;&#9;&#9;l-2.4-1.4l2.4-1.4l2.2,1.3c1.7-0.9,3.2-1.3,4.4-1.6l2.1,2c-0.9,0.2-2.6,0.5-4.4,1.6c-1.6,0.9-1.4,1.6-0.7,2&#10;&#9;&#9;&#9;&#9;&#9;c0.8,0.5,2.2,0.3,5.1-0.5C891.7,883.7,894.3,883.8,896.5,885.1z"/>
			</g>
		</g>
		<g>
			<path fill="#E5AC45" d="M947.5,915c0,0.1,0,0.3,0,0.4c0,0.1,0,0.2,0,0.3c0,0.1,0,0.3-0.1,0.4c0,0.1,0,0.2-0.1,0.3&#10;&#9;&#9;&#9;&#9;c0,0.1-0.1,0.2-0.1,0.4c0,0.1-0.1,0.2-0.1,0.3c0,0.1-0.1,0.2-0.1,0.4c0,0.1-0.1,0.2-0.1,0.3c-0.1,0.1-0.1,0.3-0.2,0.4&#10;&#9;&#9;&#9;&#9;c0,0.1-0.1,0.2-0.2,0.3c-0.1,0.1-0.1,0.3-0.2,0.4c-0.1,0.1-0.1,0.2-0.2,0.3c-0.1,0.2-0.2,0.3-0.3,0.5c-0.1,0.1-0.1,0.2-0.2,0.3&#10;&#9;&#9;&#9;&#9;c-0.1,0.2-0.2,0.3-0.4,0.5c-0.1,0.1-0.1,0.1-0.2,0.2c-0.2,0.3-0.4,0.5-0.7,0.8c-0.1,0.1-0.1,0.1-0.2,0.2&#10;&#9;&#9;&#9;&#9;c-0.2,0.2-0.4,0.4-0.6,0.6c-0.1,0.1-0.2,0.2-0.3,0.3c-0.1,0.1-0.2,0.2-0.4,0.3c-0.1,0.1-0.2,0.2-0.4,0.3&#10;&#9;&#9;&#9;&#9;c-0.1,0.1-0.3,0.2-0.4,0.3c-0.1,0.1-0.2,0.2-0.4,0.3c-0.1,0.1-0.3,0.2-0.4,0.3c-0.1,0.1-0.3,0.2-0.4,0.3&#10;&#9;&#9;&#9;&#9;c-0.2,0.1-0.3,0.2-0.5,0.3c-0.2,0.1-0.4,0.2-0.6,0.4c-0.6,0.3-1.1,0.6-1.7,0.9c-0.2,0.1-0.3,0.1-0.5,0.2&#10;&#9;&#9;&#9;&#9;c-0.5,0.2-1.1,0.5-1.6,0.7c-0.1,0-0.1,0.1-0.2,0.1c-0.6,0.2-1.2,0.4-1.8,0.6c-0.4,0.1-0.9,0.3-1.3,0.4c-0.3,0.1-0.7,0.2-1,0.3&#10;&#9;&#9;&#9;&#9;c-0.5,0.1-0.9,0.2-1.4,0.3c-0.3,0.1-0.7,0.1-1,0.2c-0.1,0-0.3,0-0.4,0.1c-0.6,0.1-1.2,0.2-1.8,0.3c-0.2,0-0.3,0-0.5,0.1&#10;&#9;&#9;&#9;&#9;c-0.3,0-0.7,0.1-1,0.1c-0.6,0-1.1,0.1-1.7,0.1c-0.4,0-0.7,0-1.1,0c-0.5,0-0.9,0-1.4,0c-0.4,0-0.8,0-1.2,0c-0.4,0-0.9,0-1.3-0.1&#10;&#9;&#9;&#9;&#9;c-0.4,0-0.8-0.1-1.2-0.1c-0.4,0-0.9-0.1-1.3-0.1c-0.4,0-0.8-0.1-1.1-0.2c-0.5-0.1-0.9-0.2-1.4-0.2c-0.4-0.1-0.7-0.1-1.1-0.2&#10;&#9;&#9;&#9;&#9;c-0.5-0.1-1.1-0.2-1.6-0.4c-0.3-0.1-0.7-0.2-1-0.3c-0.2-0.1-0.4-0.1-0.5-0.2c-0.5-0.2-1-0.3-1.6-0.5c-0.1-0.1-0.3-0.1-0.4-0.2&#10;&#9;&#9;&#9;&#9;c-0.5-0.2-0.9-0.4-1.4-0.6c-0.2-0.1-0.4-0.2-0.7-0.3c-0.6-0.3-1.3-0.6-1.9-1c-3.5-2-5.7-4.4-6.8-7c-0.5-1.2-0.7-2.4-0.7-3.5&#10;&#9;&#9;&#9;&#9;l0,7.2c0,3.8,2.5,7.6,7.5,10.5c0.6,0.3,1.2,0.7,1.9,1c0.2,0.1,0.4,0.2,0.7,0.3c0.4,0.2,0.8,0.3,1.2,0.5c0.1,0,0.1,0,0.2,0.1&#10;&#9;&#9;&#9;&#9;c0.1,0.1,0.3,0.1,0.4,0.2c0.5,0.2,1,0.4,1.6,0.5c0.2,0.1,0.4,0.1,0.5,0.2c0.1,0,0.2,0.1,0.4,0.1c0.2,0.1,0.4,0.1,0.7,0.2&#10;&#9;&#9;&#9;&#9;c0.5,0.1,1.1,0.3,1.6,0.4c0.1,0,0.3,0.1,0.4,0.1c0.2,0,0.4,0.1,0.6,0.1c0.4,0.1,0.9,0.2,1.4,0.2c0.2,0,0.4,0.1,0.5,0.1&#10;&#9;&#9;&#9;&#9;c0.2,0,0.4,0,0.6,0.1c0.4,0.1,0.8,0.1,1.3,0.1c0.2,0,0.4,0.1,0.6,0.1c0.2,0,0.4,0,0.6,0c0.4,0,0.9,0.1,1.3,0.1c0.2,0,0.4,0,0.6,0&#10;&#9;&#9;&#9;&#9;c0.2,0,0.3,0,0.5,0c0.5,0,0.9,0,1.4,0c0.2,0,0.5,0,0.7,0c0.1,0,0.3,0,0.4,0c0.6,0,1.2-0.1,1.7-0.1c0.2,0,0.5,0,0.7,0&#10;&#9;&#9;&#9;&#9;c0.1,0,0.2,0,0.3,0c0.2,0,0.3,0,0.5-0.1c0.6-0.1,1.2-0.2,1.8-0.3c0.1,0,0.3,0,0.4-0.1c0.1,0,0.1,0,0.2,0c0.3-0.1,0.5-0.1,0.8-0.2&#10;&#9;&#9;&#9;&#9;c0.5-0.1,1-0.2,1.4-0.3c0.3-0.1,0.7-0.2,1-0.3c0.4-0.1,0.9-0.2,1.3-0.4c0.1,0,0.2-0.1,0.3-0.1c0.5-0.2,1-0.4,1.6-0.5&#10;&#9;&#9;&#9;&#9;c0.1,0,0.1-0.1,0.2-0.1c0.6-0.2,1.1-0.5,1.6-0.7c0.2-0.1,0.3-0.1,0.5-0.2c0.6-0.3,1.2-0.6,1.7-0.9c0.1-0.1,0.2-0.1,0.3-0.2&#10;&#9;&#9;&#9;&#9;c0.1-0.1,0.2-0.1,0.3-0.2c0.2-0.1,0.3-0.2,0.5-0.3c0.1-0.1,0.3-0.2,0.4-0.3c0.1-0.1,0.3-0.2,0.4-0.3c0.1-0.1,0.3-0.2,0.4-0.3&#10;&#9;&#9;&#9;&#9;c0.1-0.1,0.3-0.2,0.4-0.3c0.1-0.1,0.2-0.2,0.4-0.3c0.1-0.1,0.2-0.2,0.4-0.3c0,0,0.1-0.1,0.2-0.1c0,0,0.1-0.1,0.1-0.1&#10;&#9;&#9;&#9;&#9;c0.2-0.2,0.4-0.4,0.6-0.6c0.1-0.1,0.1-0.1,0.2-0.2c0.2-0.3,0.5-0.5,0.7-0.8c0,0,0,0,0,0c0-0.1,0.1-0.1,0.1-0.2&#10;&#9;&#9;&#9;&#9;c0.1-0.2,0.2-0.3,0.4-0.5c0.1-0.1,0.1-0.2,0.2-0.3c0.1-0.2,0.2-0.3,0.3-0.5c0,0,0.1-0.1,0.1-0.1c0-0.1,0.1-0.1,0.1-0.2&#10;&#9;&#9;&#9;&#9;c0.1-0.1,0.1-0.3,0.2-0.4c0.1-0.1,0.1-0.2,0.2-0.3c0.1-0.1,0.1-0.3,0.2-0.4c0-0.1,0.1-0.1,0.1-0.2c0-0.1,0-0.1,0.1-0.2&#10;&#9;&#9;&#9;&#9;c0-0.1,0.1-0.2,0.1-0.4c0-0.1,0.1-0.2,0.1-0.3c0-0.1,0.1-0.2,0.1-0.4c0-0.1,0-0.1,0-0.2c0,0,0-0.1,0-0.1c0-0.1,0-0.3,0.1-0.4&#10;&#9;&#9;&#9;&#9;c0-0.1,0-0.2,0-0.3c0-0.1,0-0.3,0-0.4c0-0.1,0-0.2,0-0.2c0-0.1,0-0.1,0-0.2l0-7.2C947.5,914.7,947.5,914.9,947.5,915z"/>
			<g>
				<path fill="#F2C05B" d="M939.9,904.1c10,5.8,10.1,15.2,0.1,20.9c-9.9,5.8-26.1,5.8-36.2,0c-10-5.8-10.1-15.2-0.1-20.9&#10;&#9;&#9;&#9;&#9;&#9;C913.7,898.3,929.9,898.3,939.9,904.1z"/>
			</g>
			<g>
				<path fill="#EC8659" d="M930.3,913c2.2,1.3,2.5,3.3,0.2,5.2l2.5,1.5l-2.4,1.4l-2.4-1.4c-1.7,0.9-3.8,1.6-5.2,1.8l-2.2-2.1&#10;&#9;&#9;&#9;&#9;&#9;c1.6-0.3,3.5-0.8,5.1-1.7c1.4-0.8,1.8-1.7,0.8-2.2c-0.9-0.5-2.3-0.4-4.7,0.3c-3.5,1-6.6,1.3-8.9,0c-2.2-1.3-2.4-3.1-0.2-4.9&#10;&#9;&#9;&#9;&#9;&#9;l-2.4-1.4l2.4-1.4l2.2,1.3c1.7-0.9,3.2-1.3,4.4-1.6l2.1,2c-0.9,0.2-2.6,0.5-4.4,1.6c-1.6,0.9-1.4,1.6-0.7,2&#10;&#9;&#9;&#9;&#9;&#9;c0.8,0.5,2.2,0.3,5.1-0.5C925.5,911.6,928.1,911.7,930.3,913z"/>
			</g>
		</g>
		<g>
			<path fill="#E5AC45" d="M956.5,887.2c0,0.1,0,0.3,0,0.4c0,0.1,0,0.2,0,0.3c0,0.1,0,0.3-0.1,0.4c0,0.1,0,0.2-0.1,0.3&#10;&#9;&#9;&#9;&#9;c0,0.1-0.1,0.2-0.1,0.4c0,0.1-0.1,0.2-0.1,0.3c0,0.1-0.1,0.2-0.1,0.4c0,0.1-0.1,0.2-0.1,0.3c-0.1,0.1-0.1,0.3-0.2,0.4&#10;&#9;&#9;&#9;&#9;c0,0.1-0.1,0.2-0.2,0.3c-0.1,0.1-0.1,0.3-0.2,0.4c-0.1,0.1-0.1,0.2-0.2,0.3c-0.1,0.2-0.2,0.3-0.3,0.5c-0.1,0.1-0.1,0.2-0.2,0.3&#10;&#9;&#9;&#9;&#9;c-0.1,0.2-0.2,0.3-0.4,0.5c-0.1,0.1-0.1,0.1-0.2,0.2c-0.2,0.3-0.4,0.5-0.7,0.8c-0.1,0.1-0.1,0.1-0.2,0.2&#10;&#9;&#9;&#9;&#9;c-0.2,0.2-0.4,0.4-0.6,0.6c-0.1,0.1-0.2,0.2-0.3,0.3c-0.1,0.1-0.2,0.2-0.4,0.3c-0.1,0.1-0.2,0.2-0.4,0.3&#10;&#9;&#9;&#9;&#9;c-0.1,0.1-0.3,0.2-0.4,0.3c-0.1,0.1-0.2,0.2-0.4,0.3c-0.1,0.1-0.3,0.2-0.4,0.3c-0.1,0.1-0.3,0.2-0.4,0.3&#10;&#9;&#9;&#9;&#9;c-0.2,0.1-0.3,0.2-0.5,0.3c-0.2,0.1-0.4,0.2-0.6,0.4c-0.6,0.3-1.1,0.6-1.7,0.9c-0.2,0.1-0.3,0.1-0.5,0.2&#10;&#9;&#9;&#9;&#9;c-0.5,0.2-1.1,0.5-1.6,0.7c-0.1,0-0.1,0.1-0.2,0.1c-0.6,0.2-1.2,0.4-1.8,0.6c-0.4,0.1-0.9,0.3-1.3,0.4c-0.3,0.1-0.7,0.2-1,0.3&#10;&#9;&#9;&#9;&#9;c-0.5,0.1-0.9,0.2-1.4,0.3c-0.3,0.1-0.7,0.1-1,0.2c-0.1,0-0.3,0-0.4,0.1c-0.6,0.1-1.2,0.2-1.8,0.3c-0.2,0-0.3,0-0.5,0.1&#10;&#9;&#9;&#9;&#9;c-0.3,0-0.7,0.1-1,0.1c-0.6,0-1.1,0.1-1.7,0.1c-0.4,0-0.7,0-1.1,0c-0.5,0-0.9,0-1.4,0c-0.4,0-0.8,0-1.2,0c-0.4,0-0.9,0-1.3-0.1&#10;&#9;&#9;&#9;&#9;c-0.4,0-0.8-0.1-1.2-0.1c-0.4,0-0.9-0.1-1.3-0.1c-0.4,0-0.8-0.1-1.1-0.2c-0.5-0.1-0.9-0.2-1.4-0.2c-0.4-0.1-0.7-0.1-1.1-0.2&#10;&#9;&#9;&#9;&#9;c-0.5-0.1-1.1-0.2-1.6-0.4c-0.3-0.1-0.7-0.2-1-0.3c-0.2-0.1-0.4-0.1-0.5-0.2c-0.5-0.2-1-0.3-1.6-0.5c-0.1-0.1-0.3-0.1-0.4-0.2&#10;&#9;&#9;&#9;&#9;c-0.5-0.2-0.9-0.4-1.4-0.6c-0.2-0.1-0.4-0.2-0.7-0.3c-0.6-0.3-1.3-0.6-1.9-1c-3.5-2-5.7-4.4-6.8-7c-0.5-1.2-0.7-2.4-0.7-3.5&#10;&#9;&#9;&#9;&#9;l0,7.2c0,3.8,2.5,7.6,7.5,10.5c0.6,0.3,1.2,0.7,1.9,1c0.2,0.1,0.4,0.2,0.7,0.3c0.4,0.2,0.8,0.3,1.2,0.5c0.1,0,0.1,0,0.2,0.1&#10;&#9;&#9;&#9;&#9;c0.1,0.1,0.3,0.1,0.4,0.2c0.5,0.2,1,0.4,1.6,0.5c0.2,0.1,0.4,0.1,0.5,0.2c0.1,0,0.2,0.1,0.4,0.1c0.2,0.1,0.4,0.1,0.7,0.2&#10;&#9;&#9;&#9;&#9;c0.5,0.1,1.1,0.3,1.6,0.4c0.1,0,0.3,0.1,0.4,0.1c0.2,0,0.4,0.1,0.6,0.1c0.4,0.1,0.9,0.2,1.4,0.2c0.2,0,0.4,0.1,0.5,0.1&#10;&#9;&#9;&#9;&#9;c0.2,0,0.4,0,0.6,0.1c0.4,0.1,0.8,0.1,1.3,0.1c0.2,0,0.4,0.1,0.6,0.1c0.2,0,0.4,0,0.6,0c0.4,0,0.9,0.1,1.3,0.1c0.2,0,0.4,0,0.6,0&#10;&#9;&#9;&#9;&#9;c0.2,0,0.3,0,0.5,0c0.5,0,0.9,0,1.4,0c0.2,0,0.5,0,0.7,0c0.1,0,0.3,0,0.4,0c0.6,0,1.2-0.1,1.7-0.1c0.2,0,0.5,0,0.7,0&#10;&#9;&#9;&#9;&#9;c0.1,0,0.2,0,0.3,0c0.2,0,0.3,0,0.5-0.1c0.6-0.1,1.2-0.2,1.8-0.3c0.1,0,0.3,0,0.4-0.1c0.1,0,0.1,0,0.2,0c0.3-0.1,0.5-0.1,0.8-0.2&#10;&#9;&#9;&#9;&#9;c0.5-0.1,1-0.2,1.4-0.3c0.3-0.1,0.7-0.2,1-0.3c0.4-0.1,0.9-0.2,1.3-0.4c0.1,0,0.2-0.1,0.3-0.1c0.5-0.2,1-0.4,1.6-0.5&#10;&#9;&#9;&#9;&#9;c0.1,0,0.1-0.1,0.2-0.1c0.6-0.2,1.1-0.5,1.6-0.7c0.2-0.1,0.3-0.1,0.5-0.2c0.6-0.3,1.2-0.6,1.7-0.9c0.1-0.1,0.2-0.1,0.3-0.2&#10;&#9;&#9;&#9;&#9;c0.1-0.1,0.2-0.1,0.3-0.2c0.2-0.1,0.3-0.2,0.5-0.3c0.1-0.1,0.3-0.2,0.4-0.3c0.1-0.1,0.3-0.2,0.4-0.3c0.1-0.1,0.3-0.2,0.4-0.3&#10;&#9;&#9;&#9;&#9;c0.1-0.1,0.3-0.2,0.4-0.3c0.1-0.1,0.2-0.2,0.4-0.3c0.1-0.1,0.2-0.2,0.4-0.3c0,0,0.1-0.1,0.2-0.1c0,0,0.1-0.1,0.1-0.1&#10;&#9;&#9;&#9;&#9;c0.2-0.2,0.4-0.4,0.6-0.6c0.1-0.1,0.1-0.1,0.2-0.2c0.2-0.3,0.5-0.5,0.7-0.8c0,0,0,0,0,0c0-0.1,0.1-0.1,0.1-0.2&#10;&#9;&#9;&#9;&#9;c0.1-0.2,0.2-0.3,0.4-0.5c0.1-0.1,0.1-0.2,0.2-0.3c0.1-0.2,0.2-0.3,0.3-0.5c0,0,0.1-0.1,0.1-0.1c0-0.1,0.1-0.1,0.1-0.2&#10;&#9;&#9;&#9;&#9;c0.1-0.1,0.1-0.3,0.2-0.4c0.1-0.1,0.1-0.2,0.2-0.3c0.1-0.1,0.1-0.3,0.2-0.4c0-0.1,0.1-0.1,0.1-0.2c0-0.1,0-0.1,0.1-0.2&#10;&#9;&#9;&#9;&#9;c0-0.1,0.1-0.2,0.1-0.4c0-0.1,0.1-0.2,0.1-0.3c0-0.1,0.1-0.2,0.1-0.4c0-0.1,0-0.1,0-0.2c0,0,0-0.1,0-0.1c0-0.1,0-0.3,0.1-0.4&#10;&#9;&#9;&#9;&#9;c0-0.1,0-0.2,0-0.3c0-0.1,0-0.3,0-0.4c0-0.1,0-0.2,0-0.2c0-0.1,0-0.1,0-0.2l0-7.2C956.5,886.9,956.5,887,956.5,887.2z"/>
			<g>
				<path fill="#F2C05B" d="M949,876.2c10,5.8,10.1,15.2,0.1,20.9c-9.9,5.8-26.1,5.8-36.2,0c-10-5.8-10.1-15.2-0.1-20.9&#10;&#9;&#9;&#9;&#9;&#9;C922.8,870.4,939,870.4,949,876.2z"/>
			</g>
			<g>
				<path fill="#EC8659" d="M939.3,885.1c2.2,1.3,2.5,3.3,0.2,5.2l2.5,1.5l-2.4,1.4l-2.4-1.4c-1.7,0.9-3.8,1.6-5.2,1.8l-2.2-2.1&#10;&#9;&#9;&#9;&#9;&#9;c1.6-0.3,3.5-0.8,5.1-1.7c1.4-0.8,1.8-1.7,0.8-2.2c-0.9-0.5-2.3-0.4-4.7,0.3c-3.5,1-6.6,1.3-8.9,0c-2.2-1.3-2.4-3.1-0.2-4.9&#10;&#9;&#9;&#9;&#9;&#9;l-2.4-1.4l2.4-1.4l2.2,1.3c1.7-0.9,3.2-1.3,4.4-1.6l2.1,2c-0.9,0.2-2.6,0.5-4.4,1.6c-1.6,0.9-1.4,1.6-0.7,2&#10;&#9;&#9;&#9;&#9;&#9;c0.8,0.5,2.2,0.3,5.1-0.5C934.5,883.7,937.1,883.8,939.3,885.1z"/>
			</g>
		</g>
		<g>
			<path fill="#E5AC45" d="M936.7,875.9c0,0.1,0,0.3,0,0.4c0,0.1,0,0.2,0,0.3c0,0.1,0,0.3-0.1,0.4c0,0.1,0,0.2-0.1,0.3&#10;&#9;&#9;&#9;&#9;c0,0.1-0.1,0.2-0.1,0.4c0,0.1-0.1,0.2-0.1,0.3c0,0.1-0.1,0.2-0.1,0.4c0,0.1-0.1,0.2-0.1,0.3c-0.1,0.1-0.1,0.3-0.2,0.4&#10;&#9;&#9;&#9;&#9;c0,0.1-0.1,0.2-0.2,0.3c-0.1,0.1-0.1,0.3-0.2,0.4c-0.1,0.1-0.1,0.2-0.2,0.3c-0.1,0.2-0.2,0.3-0.3,0.5c-0.1,0.1-0.1,0.2-0.2,0.3&#10;&#9;&#9;&#9;&#9;c-0.1,0.2-0.2,0.3-0.4,0.5c-0.1,0.1-0.1,0.1-0.2,0.2c-0.2,0.3-0.4,0.5-0.7,0.8c-0.1,0.1-0.1,0.1-0.2,0.2&#10;&#9;&#9;&#9;&#9;c-0.2,0.2-0.4,0.4-0.6,0.6c-0.1,0.1-0.2,0.2-0.3,0.3c-0.1,0.1-0.2,0.2-0.4,0.3c-0.1,0.1-0.2,0.2-0.4,0.3&#10;&#9;&#9;&#9;&#9;c-0.1,0.1-0.3,0.2-0.4,0.3c-0.1,0.1-0.2,0.2-0.4,0.3c-0.1,0.1-0.3,0.2-0.4,0.3c-0.1,0.1-0.3,0.2-0.4,0.3&#10;&#9;&#9;&#9;&#9;c-0.2,0.1-0.3,0.2-0.5,0.3c-0.2,0.1-0.4,0.2-0.6,0.4c-0.6,0.3-1.1,0.6-1.7,0.9c-0.2,0.1-0.3,0.1-0.5,0.2&#10;&#9;&#9;&#9;&#9;c-0.5,0.2-1.1,0.5-1.6,0.7c-0.1,0-0.1,0.1-0.2,0.1c-0.6,0.2-1.2,0.4-1.8,0.6c-0.4,0.1-0.9,0.3-1.3,0.4c-0.3,0.1-0.7,0.2-1,0.3&#10;&#9;&#9;&#9;&#9;c-0.5,0.1-0.9,0.2-1.4,0.3c-0.3,0.1-0.7,0.1-1,0.2c-0.1,0-0.3,0-0.4,0.1c-0.6,0.1-1.2,0.2-1.8,0.3c-0.2,0-0.3,0-0.5,0.1&#10;&#9;&#9;&#9;&#9;c-0.3,0-0.7,0.1-1,0.1c-0.6,0-1.1,0.1-1.7,0.1c-0.4,0-0.7,0-1.1,0c-0.5,0-0.9,0-1.4,0c-0.4,0-0.8,0-1.2,0c-0.4,0-0.9,0-1.3-0.1&#10;&#9;&#9;&#9;&#9;c-0.4,0-0.8-0.1-1.2-0.1c-0.4,0-0.9-0.1-1.3-0.1c-0.4,0-0.8-0.1-1.1-0.2c-0.5-0.1-0.9-0.2-1.4-0.2c-0.4-0.1-0.7-0.1-1.1-0.2&#10;&#9;&#9;&#9;&#9;c-0.5-0.1-1.1-0.2-1.6-0.4c-0.3-0.1-0.7-0.2-1-0.3c-0.2-0.1-0.4-0.1-0.5-0.2c-0.5-0.2-1-0.3-1.6-0.5c-0.1-0.1-0.3-0.1-0.4-0.2&#10;&#9;&#9;&#9;&#9;c-0.5-0.2-0.9-0.4-1.4-0.6c-0.2-0.1-0.4-0.2-0.7-0.3c-0.6-0.3-1.3-0.6-1.9-1c-3.5-2-5.7-4.4-6.8-7c-0.5-1.2-0.7-2.4-0.7-3.5&#10;&#9;&#9;&#9;&#9;l0,7.2c0,3.8,2.5,7.6,7.5,10.5c0.6,0.3,1.2,0.7,1.9,1c0.2,0.1,0.4,0.2,0.7,0.3c0.4,0.2,0.8,0.3,1.2,0.5c0.1,0,0.1,0,0.2,0.1&#10;&#9;&#9;&#9;&#9;c0.1,0.1,0.3,0.1,0.4,0.2c0.5,0.2,1,0.4,1.6,0.5c0.2,0.1,0.4,0.1,0.5,0.2c0.1,0,0.2,0.1,0.4,0.1c0.2,0.1,0.4,0.1,0.7,0.2&#10;&#9;&#9;&#9;&#9;c0.5,0.1,1.1,0.3,1.6,0.4c0.1,0,0.3,0.1,0.4,0.1c0.2,0,0.4,0.1,0.6,0.1c0.4,0.1,0.9,0.2,1.4,0.2c0.2,0,0.4,0.1,0.5,0.1&#10;&#9;&#9;&#9;&#9;c0.2,0,0.4,0,0.6,0.1c0.4,0.1,0.8,0.1,1.3,0.1c0.2,0,0.4,0.1,0.6,0.1c0.2,0,0.4,0,0.6,0c0.4,0,0.9,0.1,1.3,0.1c0.2,0,0.4,0,0.6,0&#10;&#9;&#9;&#9;&#9;c0.2,0,0.3,0,0.5,0c0.5,0,0.9,0,1.4,0c0.2,0,0.5,0,0.7,0c0.1,0,0.3,0,0.4,0c0.6,0,1.2-0.1,1.7-0.1c0.2,0,0.5,0,0.7,0&#10;&#9;&#9;&#9;&#9;c0.1,0,0.2,0,0.3,0c0.2,0,0.3,0,0.5-0.1c0.6-0.1,1.2-0.2,1.8-0.3c0.1,0,0.3,0,0.4-0.1c0.1,0,0.1,0,0.2,0c0.3-0.1,0.5-0.1,0.8-0.2&#10;&#9;&#9;&#9;&#9;c0.5-0.1,1-0.2,1.4-0.3c0.3-0.1,0.7-0.2,1-0.3c0.4-0.1,0.9-0.2,1.3-0.4c0.1,0,0.2-0.1,0.3-0.1c0.5-0.2,1-0.4,1.6-0.5&#10;&#9;&#9;&#9;&#9;c0.1,0,0.1-0.1,0.2-0.1c0.6-0.2,1.1-0.5,1.6-0.7c0.2-0.1,0.3-0.1,0.5-0.2c0.6-0.3,1.2-0.6,1.7-0.9c0.1-0.1,0.2-0.1,0.3-0.2&#10;&#9;&#9;&#9;&#9;c0.1-0.1,0.2-0.1,0.3-0.2c0.2-0.1,0.3-0.2,0.5-0.3c0.1-0.1,0.3-0.2,0.4-0.3c0.1-0.1,0.3-0.2,0.4-0.3c0.1-0.1,0.3-0.2,0.4-0.3&#10;&#9;&#9;&#9;&#9;c0.1-0.1,0.3-0.2,0.4-0.3c0.1-0.1,0.2-0.2,0.4-0.3c0.1-0.1,0.2-0.2,0.4-0.3c0,0,0.1-0.1,0.2-0.1c0,0,0.1-0.1,0.1-0.1&#10;&#9;&#9;&#9;&#9;c0.2-0.2,0.4-0.4,0.6-0.6c0.1-0.1,0.1-0.1,0.2-0.2c0.2-0.3,0.5-0.5,0.7-0.8c0,0,0,0,0,0c0-0.1,0.1-0.1,0.1-0.2&#10;&#9;&#9;&#9;&#9;c0.1-0.2,0.2-0.3,0.4-0.5c0.1-0.1,0.1-0.2,0.2-0.3c0.1-0.2,0.2-0.3,0.3-0.5c0,0,0.1-0.1,0.1-0.1c0-0.1,0.1-0.1,0.1-0.2&#10;&#9;&#9;&#9;&#9;c0.1-0.1,0.1-0.3,0.2-0.4c0.1-0.1,0.1-0.2,0.2-0.3c0.1-0.1,0.1-0.3,0.2-0.4c0-0.1,0.1-0.1,0.1-0.2c0-0.1,0-0.1,0.1-0.2&#10;&#9;&#9;&#9;&#9;c0-0.1,0.1-0.2,0.1-0.4c0-0.1,0.1-0.2,0.1-0.3c0-0.1,0.1-0.2,0.1-0.4c0-0.1,0-0.1,0-0.2c0,0,0-0.1,0-0.1c0-0.1,0-0.3,0.1-0.4&#10;&#9;&#9;&#9;&#9;c0-0.1,0-0.2,0-0.3c0-0.1,0-0.3,0-0.4c0-0.1,0-0.2,0-0.2c0-0.1,0-0.1,0-0.2l0-7.2C936.7,875.6,936.7,875.8,936.7,875.9z"/>
			<g>
				<path fill="#F2C05B" d="M929.2,864.9c10,5.8,10.1,15.2,0.1,20.9s-26.1,5.8-36.2,0c-10-5.8-10.1-15.2-0.1-20.9&#10;&#9;&#9;&#9;&#9;&#9;S919.2,859.2,929.2,864.9z"/>
			</g>
			<g>
				<path fill="#EC8659" d="M919.5,873.9c2.2,1.3,2.5,3.3,0.2,5.2l2.5,1.5l-2.4,1.4l-2.4-1.4c-1.7,0.9-3.8,1.6-5.2,1.8l-2.2-2.1&#10;&#9;&#9;&#9;&#9;&#9;c1.6-0.3,3.5-0.8,5.1-1.7c1.4-0.8,1.8-1.7,0.8-2.2c-0.9-0.5-2.3-0.4-4.7,0.3c-3.5,1-6.6,1.3-8.9,0c-2.2-1.3-2.4-3.1-0.2-4.9&#10;&#9;&#9;&#9;&#9;&#9;l-2.4-1.4l2.4-1.4l2.2,1.3c1.7-0.9,3.2-1.3,4.4-1.6l2.1,2c-0.9,0.2-2.6,0.5-4.4,1.6c-1.6,0.9-1.4,1.6-0.7,2&#10;&#9;&#9;&#9;&#9;&#9;c0.8,0.5,2.2,0.3,5.1-0.5C914.8,872.5,917.3,872.6,919.5,873.9z"/>
			</g>
		</g>
		<g>
			<path fill="#E5AC45" d="M934,863.1c0,0.1,0,0.3,0,0.4c0,0.1,0,0.2,0,0.3c0,0.1,0,0.3-0.1,0.4c0,0.1,0,0.2-0.1,0.3&#10;&#9;&#9;&#9;&#9;c0,0.1-0.1,0.2-0.1,0.4c0,0.1-0.1,0.2-0.1,0.3c0,0.1-0.1,0.2-0.1,0.4c0,0.1-0.1,0.2-0.1,0.3c-0.1,0.1-0.1,0.3-0.2,0.4&#10;&#9;&#9;&#9;&#9;c0,0.1-0.1,0.2-0.2,0.3c-0.1,0.1-0.1,0.3-0.2,0.4c-0.1,0.1-0.1,0.2-0.2,0.3c-0.1,0.2-0.2,0.3-0.3,0.5c-0.1,0.1-0.1,0.2-0.2,0.3&#10;&#9;&#9;&#9;&#9;c-0.1,0.2-0.2,0.3-0.4,0.5c-0.1,0.1-0.1,0.1-0.2,0.2c-0.2,0.3-0.4,0.5-0.7,0.8c-0.1,0.1-0.1,0.1-0.2,0.2&#10;&#9;&#9;&#9;&#9;c-0.2,0.2-0.4,0.4-0.6,0.6c-0.1,0.1-0.2,0.2-0.3,0.3c-0.1,0.1-0.2,0.2-0.4,0.3c-0.1,0.1-0.2,0.2-0.4,0.3&#10;&#9;&#9;&#9;&#9;c-0.1,0.1-0.3,0.2-0.4,0.3c-0.1,0.1-0.2,0.2-0.4,0.3c-0.1,0.1-0.3,0.2-0.4,0.3c-0.1,0.1-0.3,0.2-0.4,0.3&#10;&#9;&#9;&#9;&#9;c-0.2,0.1-0.3,0.2-0.5,0.3c-0.2,0.1-0.4,0.2-0.6,0.4c-0.6,0.3-1.1,0.6-1.7,0.9c-0.2,0.1-0.3,0.1-0.5,0.2&#10;&#9;&#9;&#9;&#9;c-0.5,0.2-1.1,0.5-1.6,0.7c-0.1,0-0.1,0.1-0.2,0.1c-0.6,0.2-1.2,0.4-1.8,0.6c-0.4,0.1-0.9,0.3-1.3,0.4c-0.3,0.1-0.7,0.2-1,0.3&#10;&#9;&#9;&#9;&#9;c-0.5,0.1-0.9,0.2-1.4,0.3c-0.3,0.1-0.7,0.1-1,0.2c-0.1,0-0.3,0-0.4,0.1c-0.6,0.1-1.2,0.2-1.8,0.3c-0.2,0-0.3,0-0.5,0.1&#10;&#9;&#9;&#9;&#9;c-0.3,0-0.7,0.1-1,0.1c-0.6,0-1.1,0.1-1.7,0.1c-0.4,0-0.7,0-1.1,0c-0.5,0-0.9,0-1.4,0c-0.4,0-0.8,0-1.2,0c-0.4,0-0.9,0-1.3-0.1&#10;&#9;&#9;&#9;&#9;c-0.4,0-0.8-0.1-1.2-0.1c-0.4,0-0.9-0.1-1.3-0.1c-0.4,0-0.8-0.1-1.1-0.2c-0.5-0.1-0.9-0.2-1.4-0.2c-0.4-0.1-0.7-0.1-1.1-0.2&#10;&#9;&#9;&#9;&#9;c-0.5-0.1-1.1-0.2-1.6-0.4c-0.3-0.1-0.7-0.2-1-0.3c-0.2-0.1-0.4-0.1-0.5-0.2c-0.5-0.2-1-0.3-1.6-0.5c-0.1-0.1-0.3-0.1-0.4-0.2&#10;&#9;&#9;&#9;&#9;c-0.5-0.2-0.9-0.4-1.4-0.6c-0.2-0.1-0.4-0.2-0.7-0.3c-0.6-0.3-1.3-0.6-1.9-1c-3.5-2-5.7-4.4-6.8-7c-0.5-1.2-0.7-2.4-0.7-3.5&#10;&#9;&#9;&#9;&#9;l0,7.2c0,3.8,2.5,7.6,7.5,10.5c0.6,0.3,1.2,0.7,1.9,1c0.2,0.1,0.4,0.2,0.7,0.3c0.4,0.2,0.8,0.3,1.2,0.5c0.1,0,0.1,0,0.2,0.1&#10;&#9;&#9;&#9;&#9;c0.1,0.1,0.3,0.1,0.4,0.2c0.5,0.2,1,0.4,1.6,0.5c0.2,0.1,0.4,0.1,0.5,0.2c0.1,0,0.2,0.1,0.4,0.1c0.2,0.1,0.4,0.1,0.7,0.2&#10;&#9;&#9;&#9;&#9;c0.5,0.1,1.1,0.3,1.6,0.4c0.1,0,0.3,0.1,0.4,0.1c0.2,0,0.4,0.1,0.6,0.1c0.4,0.1,0.9,0.2,1.4,0.2c0.2,0,0.4,0.1,0.5,0.1&#10;&#9;&#9;&#9;&#9;c0.2,0,0.4,0,0.6,0.1c0.4,0.1,0.8,0.1,1.3,0.1c0.2,0,0.4,0.1,0.6,0.1c0.2,0,0.4,0,0.6,0c0.4,0,0.9,0.1,1.3,0.1c0.2,0,0.4,0,0.6,0&#10;&#9;&#9;&#9;&#9;c0.2,0,0.3,0,0.5,0c0.5,0,0.9,0,1.4,0c0.2,0,0.5,0,0.7,0c0.1,0,0.3,0,0.4,0c0.6,0,1.2-0.1,1.7-0.1c0.2,0,0.5,0,0.7,0&#10;&#9;&#9;&#9;&#9;c0.1,0,0.2,0,0.3,0c0.2,0,0.3,0,0.5-0.1c0.6-0.1,1.2-0.2,1.8-0.3c0.1,0,0.3,0,0.4-0.1c0.1,0,0.1,0,0.2,0c0.3-0.1,0.5-0.1,0.8-0.2&#10;&#9;&#9;&#9;&#9;c0.5-0.1,1-0.2,1.4-0.3c0.3-0.1,0.7-0.2,1-0.3c0.4-0.1,0.9-0.2,1.3-0.4c0.1,0,0.2-0.1,0.3-0.1c0.5-0.2,1-0.4,1.6-0.5&#10;&#9;&#9;&#9;&#9;c0.1,0,0.1-0.1,0.2-0.1c0.6-0.2,1.1-0.5,1.6-0.7c0.2-0.1,0.3-0.1,0.5-0.2c0.6-0.3,1.2-0.6,1.7-0.9c0.1-0.1,0.2-0.1,0.3-0.2&#10;&#9;&#9;&#9;&#9;c0.1-0.1,0.2-0.1,0.3-0.2c0.2-0.1,0.3-0.2,0.5-0.3c0.1-0.1,0.3-0.2,0.4-0.3c0.1-0.1,0.3-0.2,0.4-0.3c0.1-0.1,0.3-0.2,0.4-0.3&#10;&#9;&#9;&#9;&#9;c0.1-0.1,0.3-0.2,0.4-0.3c0.1-0.1,0.2-0.2,0.4-0.3c0.1-0.1,0.2-0.2,0.4-0.3c0,0,0.1-0.1,0.2-0.1c0,0,0.1-0.1,0.1-0.1&#10;&#9;&#9;&#9;&#9;c0.2-0.2,0.4-0.4,0.6-0.6c0.1-0.1,0.1-0.1,0.2-0.2c0.2-0.3,0.5-0.5,0.7-0.8c0,0,0,0,0,0c0-0.1,0.1-0.1,0.1-0.2&#10;&#9;&#9;&#9;&#9;c0.1-0.2,0.2-0.3,0.4-0.5c0.1-0.1,0.1-0.2,0.2-0.3c0.1-0.2,0.2-0.3,0.3-0.5c0,0,0.1-0.1,0.1-0.1c0-0.1,0.1-0.1,0.1-0.2&#10;&#9;&#9;&#9;&#9;c0.1-0.1,0.1-0.3,0.2-0.4c0.1-0.1,0.1-0.2,0.2-0.3c0.1-0.1,0.1-0.3,0.2-0.4c0-0.1,0.1-0.1,0.1-0.2c0-0.1,0-0.1,0.1-0.2&#10;&#9;&#9;&#9;&#9;c0-0.1,0.1-0.2,0.1-0.4c0-0.1,0.1-0.2,0.1-0.3c0-0.1,0.1-0.2,0.1-0.4c0-0.1,0-0.1,0-0.2c0,0,0-0.1,0-0.1c0-0.1,0-0.3,0.1-0.4&#10;&#9;&#9;&#9;&#9;c0-0.1,0-0.2,0-0.3c0-0.1,0-0.3,0-0.4c0-0.1,0-0.2,0-0.2c0-0.1,0-0.1,0-0.2l0-7.2C934,862.8,934,863,934,863.1z"/>
			<g>
				<path fill="#F2C05B" d="M926.5,852.1c10,5.8,10.1,15.2,0.1,20.9c-9.9,5.8-26.1,5.8-36.2,0c-10-5.8-10.1-15.2-0.1-20.9&#10;&#9;&#9;&#9;&#9;&#9;C900.2,846.3,916.4,846.3,926.5,852.1z"/>
			</g>
			<g>
				<path fill="#EC8659" d="M916.8,861.1c2.2,1.3,2.5,3.3,0.2,5.2l2.5,1.5l-2.4,1.4l-2.4-1.4c-1.7,0.9-3.8,1.6-5.2,1.8l-2.2-2.1&#10;&#9;&#9;&#9;&#9;&#9;c1.6-0.3,3.5-0.8,5.1-1.7c1.4-0.8,1.8-1.7,0.8-2.2c-0.9-0.5-2.3-0.4-4.7,0.3c-3.5,1-6.6,1.3-8.9,0c-2.2-1.3-2.4-3.1-0.2-4.9&#10;&#9;&#9;&#9;&#9;&#9;l-2.4-1.4l2.4-1.4l2.2,1.3c1.7-0.9,3.2-1.3,4.4-1.6l2.1,2c-0.9,0.2-2.6,0.5-4.4,1.6c-1.6,0.9-1.4,1.6-0.7,2&#10;&#9;&#9;&#9;&#9;&#9;c0.8,0.5,2.2,0.3,5.1-0.5C912,859.7,914.6,859.8,916.8,861.1z"/>
			</g>
		</g>
		<g>
			<path fill="#E5AC45" d="M934,855.1c0,0.1,0,0.3,0,0.4c0,0.1,0,0.2,0,0.3c0,0.1,0,0.3-0.1,0.4c0,0.1,0,0.2-0.1,0.3&#10;&#9;&#9;&#9;&#9;c0,0.1-0.1,0.2-0.1,0.4c0,0.1-0.1,0.2-0.1,0.3c0,0.1-0.1,0.2-0.1,0.4c0,0.1-0.1,0.2-0.1,0.3c-0.1,0.1-0.1,0.3-0.2,0.4&#10;&#9;&#9;&#9;&#9;c0,0.1-0.1,0.2-0.2,0.3c-0.1,0.1-0.1,0.3-0.2,0.4c-0.1,0.1-0.1,0.2-0.2,0.3c-0.1,0.2-0.2,0.3-0.3,0.5c-0.1,0.1-0.1,0.2-0.2,0.3&#10;&#9;&#9;&#9;&#9;c-0.1,0.2-0.2,0.3-0.4,0.5c-0.1,0.1-0.1,0.1-0.2,0.2c-0.2,0.3-0.4,0.5-0.7,0.8c-0.1,0.1-0.1,0.1-0.2,0.2&#10;&#9;&#9;&#9;&#9;c-0.2,0.2-0.4,0.4-0.6,0.6c-0.1,0.1-0.2,0.2-0.3,0.3c-0.1,0.1-0.2,0.2-0.4,0.3c-0.1,0.1-0.2,0.2-0.4,0.3&#10;&#9;&#9;&#9;&#9;c-0.1,0.1-0.3,0.2-0.4,0.3c-0.1,0.1-0.2,0.2-0.4,0.3c-0.1,0.1-0.3,0.2-0.4,0.3c-0.1,0.1-0.3,0.2-0.4,0.3&#10;&#9;&#9;&#9;&#9;c-0.2,0.1-0.3,0.2-0.5,0.3c-0.2,0.1-0.4,0.2-0.6,0.4c-0.6,0.3-1.1,0.6-1.7,0.9c-0.2,0.1-0.3,0.1-0.5,0.2&#10;&#9;&#9;&#9;&#9;c-0.5,0.2-1.1,0.5-1.6,0.7c-0.1,0-0.1,0.1-0.2,0.1c-0.6,0.2-1.2,0.4-1.8,0.6c-0.4,0.1-0.9,0.3-1.3,0.4c-0.3,0.1-0.7,0.2-1,0.3&#10;&#9;&#9;&#9;&#9;c-0.5,0.1-0.9,0.2-1.4,0.3c-0.3,0.1-0.7,0.1-1,0.2c-0.1,0-0.3,0-0.4,0.1c-0.6,0.1-1.2,0.2-1.8,0.3c-0.2,0-0.3,0-0.5,0.1&#10;&#9;&#9;&#9;&#9;c-0.3,0-0.7,0.1-1,0.1c-0.6,0-1.1,0.1-1.7,0.1c-0.4,0-0.7,0-1.1,0c-0.5,0-0.9,0-1.4,0c-0.4,0-0.8,0-1.2,0c-0.4,0-0.9,0-1.3-0.1&#10;&#9;&#9;&#9;&#9;c-0.4,0-0.8-0.1-1.2-0.1c-0.4,0-0.9-0.1-1.3-0.1c-0.4,0-0.8-0.1-1.1-0.2c-0.5-0.1-0.9-0.2-1.4-0.2c-0.4-0.1-0.7-0.1-1.1-0.2&#10;&#9;&#9;&#9;&#9;c-0.5-0.1-1.1-0.2-1.6-0.4c-0.3-0.1-0.7-0.2-1-0.3c-0.2-0.1-0.4-0.1-0.5-0.2c-0.5-0.2-1-0.3-1.6-0.5c-0.1-0.1-0.3-0.1-0.4-0.2&#10;&#9;&#9;&#9;&#9;c-0.5-0.2-0.9-0.4-1.4-0.6c-0.2-0.1-0.4-0.2-0.7-0.3c-0.6-0.3-1.3-0.6-1.9-1c-3.5-2-5.7-4.4-6.8-7c-0.5-1.2-0.7-2.4-0.7-3.5&#10;&#9;&#9;&#9;&#9;l0,7.2c0,3.8,2.5,7.6,7.5,10.5c0.6,0.3,1.2,0.7,1.9,1c0.2,0.1,0.4,0.2,0.7,0.3c0.4,0.2,0.8,0.3,1.2,0.5c0.1,0,0.1,0,0.2,0.1&#10;&#9;&#9;&#9;&#9;c0.1,0.1,0.3,0.1,0.4,0.2c0.5,0.2,1,0.4,1.6,0.5c0.2,0.1,0.4,0.1,0.5,0.2c0.1,0,0.2,0.1,0.4,0.1c0.2,0.1,0.4,0.1,0.7,0.2&#10;&#9;&#9;&#9;&#9;c0.5,0.1,1.1,0.3,1.6,0.4c0.1,0,0.3,0.1,0.4,0.1c0.2,0,0.4,0.1,0.6,0.1c0.4,0.1,0.9,0.2,1.4,0.2c0.2,0,0.4,0.1,0.5,0.1&#10;&#9;&#9;&#9;&#9;c0.2,0,0.4,0,0.6,0.1c0.4,0.1,0.8,0.1,1.3,0.1c0.2,0,0.4,0.1,0.6,0.1c0.2,0,0.4,0,0.6,0c0.4,0,0.9,0.1,1.3,0.1c0.2,0,0.4,0,0.6,0&#10;&#9;&#9;&#9;&#9;c0.2,0,0.3,0,0.5,0c0.5,0,0.9,0,1.4,0c0.2,0,0.5,0,0.7,0c0.1,0,0.3,0,0.4,0c0.6,0,1.2-0.1,1.7-0.1c0.2,0,0.5,0,0.7,0&#10;&#9;&#9;&#9;&#9;c0.1,0,0.2,0,0.3,0c0.2,0,0.3,0,0.5-0.1c0.6-0.1,1.2-0.2,1.8-0.3c0.1,0,0.3,0,0.4-0.1c0.1,0,0.1,0,0.2,0c0.3-0.1,0.5-0.1,0.8-0.2&#10;&#9;&#9;&#9;&#9;c0.5-0.1,1-0.2,1.4-0.3c0.3-0.1,0.7-0.2,1-0.3c0.4-0.1,0.9-0.2,1.3-0.4c0.1,0,0.2-0.1,0.3-0.1c0.5-0.2,1-0.4,1.6-0.5&#10;&#9;&#9;&#9;&#9;c0.1,0,0.1-0.1,0.2-0.1c0.6-0.2,1.1-0.5,1.6-0.7c0.2-0.1,0.3-0.1,0.5-0.2c0.6-0.3,1.2-0.6,1.7-0.9c0.1-0.1,0.2-0.1,0.3-0.2&#10;&#9;&#9;&#9;&#9;c0.1-0.1,0.2-0.1,0.3-0.2c0.2-0.1,0.3-0.2,0.5-0.3c0.1-0.1,0.3-0.2,0.4-0.3c0.1-0.1,0.3-0.2,0.4-0.3c0.1-0.1,0.3-0.2,0.4-0.3&#10;&#9;&#9;&#9;&#9;c0.1-0.1,0.3-0.2,0.4-0.3c0.1-0.1,0.2-0.2,0.4-0.3c0.1-0.1,0.2-0.2,0.4-0.3c0,0,0.1-0.1,0.2-0.1c0,0,0.1-0.1,0.1-0.1&#10;&#9;&#9;&#9;&#9;c0.2-0.2,0.4-0.4,0.6-0.6c0.1-0.1,0.1-0.1,0.2-0.2c0.2-0.3,0.5-0.5,0.7-0.8c0,0,0,0,0,0c0-0.1,0.1-0.1,0.1-0.2&#10;&#9;&#9;&#9;&#9;c0.1-0.2,0.2-0.3,0.4-0.5c0.1-0.1,0.1-0.2,0.2-0.3c0.1-0.2,0.2-0.3,0.3-0.5c0,0,0.1-0.1,0.1-0.1c0-0.1,0.1-0.1,0.1-0.2&#10;&#9;&#9;&#9;&#9;c0.1-0.1,0.1-0.3,0.2-0.4c0.1-0.1,0.1-0.2,0.2-0.3c0.1-0.1,0.1-0.3,0.2-0.4c0-0.1,0.1-0.1,0.1-0.2c0-0.1,0-0.1,0.1-0.2&#10;&#9;&#9;&#9;&#9;c0-0.1,0.1-0.2,0.1-0.4c0-0.1,0.1-0.2,0.1-0.3c0-0.1,0.1-0.2,0.1-0.4c0-0.1,0-0.1,0-0.2c0,0,0-0.1,0-0.1c0-0.1,0-0.3,0.1-0.4&#10;&#9;&#9;&#9;&#9;c0-0.1,0-0.2,0-0.3c0-0.1,0-0.3,0-0.4c0-0.1,0-0.2,0-0.2c0-0.1,0-0.1,0-0.2l0-7.2C934,854.8,934,854.9,934,855.1z"/>
			<g>
				<path fill="#F2C05B" d="M926.5,844.1c10,5.8,10.1,15.2,0.1,20.9c-9.9,5.8-26.1,5.8-36.2,0c-10-5.8-10.1-15.2-0.1-20.9&#10;&#9;&#9;&#9;&#9;&#9;S916.4,838.3,926.5,844.1z"/>
			</g>
			<g>
				<path fill="#EC8659" d="M916.8,853c2.2,1.3,2.5,3.3,0.2,5.2l2.5,1.5l-2.4,1.4l-2.4-1.4c-1.7,0.9-3.8,1.6-5.2,1.8l-2.2-2.1&#10;&#9;&#9;&#9;&#9;&#9;c1.6-0.3,3.5-0.8,5.1-1.7c1.4-0.8,1.8-1.7,0.8-2.2c-0.9-0.5-2.3-0.4-4.7,0.3c-3.5,1-6.6,1.3-8.9,0c-2.2-1.3-2.4-3.1-0.2-4.9&#10;&#9;&#9;&#9;&#9;&#9;l-2.4-1.4l2.4-1.4l2.2,1.3c1.7-0.9,3.2-1.3,4.4-1.6l2.1,2c-0.9,0.2-2.6,0.5-4.4,1.6c-1.6,0.9-1.4,1.6-0.7,2&#10;&#9;&#9;&#9;&#9;&#9;c0.8,0.5,2.2,0.3,5.1-0.5C912,851.6,914.6,851.7,916.8,853z"/>
			</g>
		</g>
		<g>
			<path fill="#E5AC45" d="M945.4,847.1c0,0.1,0,0.3,0,0.4c0,0.1,0,0.2,0,0.3c0,0.1,0,0.3-0.1,0.4c0,0.1,0,0.2-0.1,0.3&#10;&#9;&#9;&#9;&#9;c0,0.1-0.1,0.2-0.1,0.4c0,0.1-0.1,0.2-0.1,0.3c0,0.1-0.1,0.2-0.1,0.4c0,0.1-0.1,0.2-0.1,0.3c-0.1,0.1-0.1,0.3-0.2,0.4&#10;&#9;&#9;&#9;&#9;c0,0.1-0.1,0.2-0.2,0.3c-0.1,0.1-0.1,0.3-0.2,0.4c-0.1,0.1-0.1,0.2-0.2,0.3c-0.1,0.2-0.2,0.3-0.3,0.5c-0.1,0.1-0.1,0.2-0.2,0.3&#10;&#9;&#9;&#9;&#9;c-0.1,0.2-0.2,0.3-0.4,0.5c-0.1,0.1-0.1,0.1-0.2,0.2c-0.2,0.3-0.4,0.5-0.7,0.8c-0.1,0.1-0.1,0.1-0.2,0.2&#10;&#9;&#9;&#9;&#9;c-0.2,0.2-0.4,0.4-0.6,0.6c-0.1,0.1-0.2,0.2-0.3,0.3c-0.1,0.1-0.2,0.2-0.4,0.3c-0.1,0.1-0.2,0.2-0.4,0.3&#10;&#9;&#9;&#9;&#9;c-0.1,0.1-0.3,0.2-0.4,0.3c-0.1,0.1-0.2,0.2-0.4,0.3c-0.1,0.1-0.3,0.2-0.4,0.3c-0.1,0.1-0.3,0.2-0.4,0.3&#10;&#9;&#9;&#9;&#9;c-0.2,0.1-0.3,0.2-0.5,0.3c-0.2,0.1-0.4,0.2-0.6,0.4c-0.6,0.3-1.1,0.6-1.7,0.9c-0.2,0.1-0.3,0.1-0.5,0.2&#10;&#9;&#9;&#9;&#9;c-0.5,0.2-1.1,0.5-1.6,0.7c-0.1,0-0.1,0.1-0.2,0.1c-0.6,0.2-1.2,0.4-1.8,0.6c-0.4,0.1-0.9,0.3-1.3,0.4c-0.3,0.1-0.7,0.2-1,0.3&#10;&#9;&#9;&#9;&#9;c-0.5,0.1-0.9,0.2-1.4,0.3c-0.3,0.1-0.7,0.1-1,0.2c-0.1,0-0.3,0-0.4,0.1c-0.6,0.1-1.2,0.2-1.8,0.3c-0.2,0-0.3,0-0.5,0.1&#10;&#9;&#9;&#9;&#9;c-0.3,0-0.7,0.1-1,0.1c-0.6,0-1.1,0.1-1.7,0.1c-0.4,0-0.7,0-1.1,0c-0.5,0-0.9,0-1.4,0c-0.4,0-0.8,0-1.2,0c-0.4,0-0.9,0-1.3-0.1&#10;&#9;&#9;&#9;&#9;c-0.4,0-0.8-0.1-1.2-0.1c-0.4,0-0.9-0.1-1.3-0.1c-0.4,0-0.8-0.1-1.1-0.2c-0.5-0.1-0.9-0.2-1.4-0.2c-0.4-0.1-0.7-0.1-1.1-0.2&#10;&#9;&#9;&#9;&#9;c-0.5-0.1-1.1-0.2-1.6-0.4c-0.3-0.1-0.7-0.2-1-0.3c-0.2-0.1-0.4-0.1-0.5-0.2c-0.5-0.2-1-0.3-1.6-0.5c-0.1-0.1-0.3-0.1-0.4-0.2&#10;&#9;&#9;&#9;&#9;c-0.5-0.2-0.9-0.4-1.4-0.6c-0.2-0.1-0.4-0.2-0.7-0.3c-0.6-0.3-1.3-0.6-1.9-1c-3.5-2-5.7-4.4-6.8-7c-0.5-1.2-0.7-2.4-0.7-3.5&#10;&#9;&#9;&#9;&#9;l0,7.2c0,3.8,2.5,7.6,7.5,10.5c0.6,0.3,1.2,0.7,1.9,1c0.2,0.1,0.4,0.2,0.7,0.3c0.4,0.2,0.8,0.3,1.2,0.5c0.1,0,0.1,0,0.2,0.1&#10;&#9;&#9;&#9;&#9;c0.1,0.1,0.3,0.1,0.4,0.2c0.5,0.2,1,0.4,1.6,0.5c0.2,0.1,0.4,0.1,0.5,0.2c0.1,0,0.2,0.1,0.4,0.1c0.2,0.1,0.4,0.1,0.7,0.2&#10;&#9;&#9;&#9;&#9;c0.5,0.1,1.1,0.3,1.6,0.4c0.1,0,0.3,0.1,0.4,0.1c0.2,0,0.4,0.1,0.6,0.1c0.4,0.1,0.9,0.2,1.4,0.2c0.2,0,0.4,0.1,0.5,0.1&#10;&#9;&#9;&#9;&#9;c0.2,0,0.4,0,0.6,0.1c0.4,0.1,0.8,0.1,1.3,0.1c0.2,0,0.4,0.1,0.6,0.1c0.2,0,0.4,0,0.6,0c0.4,0,0.9,0.1,1.3,0.1c0.2,0,0.4,0,0.6,0&#10;&#9;&#9;&#9;&#9;c0.2,0,0.3,0,0.5,0c0.5,0,0.9,0,1.4,0c0.2,0,0.5,0,0.7,0c0.1,0,0.3,0,0.4,0c0.6,0,1.2-0.1,1.7-0.1c0.2,0,0.5,0,0.7,0&#10;&#9;&#9;&#9;&#9;c0.1,0,0.2,0,0.3,0c0.2,0,0.3,0,0.5-0.1c0.6-0.1,1.2-0.2,1.8-0.3c0.1,0,0.3,0,0.4-0.1c0.1,0,0.1,0,0.2,0c0.3-0.1,0.5-0.1,0.8-0.2&#10;&#9;&#9;&#9;&#9;c0.5-0.1,1-0.2,1.4-0.3c0.3-0.1,0.7-0.2,1-0.3c0.4-0.1,0.9-0.2,1.3-0.4c0.1,0,0.2-0.1,0.3-0.1c0.5-0.2,1-0.4,1.6-0.5&#10;&#9;&#9;&#9;&#9;c0.1,0,0.1-0.1,0.2-0.1c0.6-0.2,1.1-0.5,1.6-0.7c0.2-0.1,0.3-0.1,0.5-0.2c0.6-0.3,1.2-0.6,1.7-0.9c0.1-0.1,0.2-0.1,0.3-0.2&#10;&#9;&#9;&#9;&#9;c0.1-0.1,0.2-0.1,0.3-0.2c0.2-0.1,0.3-0.2,0.5-0.3c0.1-0.1,0.3-0.2,0.4-0.3c0.1-0.1,0.3-0.2,0.4-0.3c0.1-0.1,0.3-0.2,0.4-0.3&#10;&#9;&#9;&#9;&#9;c0.1-0.1,0.3-0.2,0.4-0.3c0.1-0.1,0.2-0.2,0.4-0.3c0.1-0.1,0.2-0.2,0.4-0.3c0,0,0.1-0.1,0.2-0.1c0,0,0.1-0.1,0.1-0.1&#10;&#9;&#9;&#9;&#9;c0.2-0.2,0.4-0.4,0.6-0.6c0.1-0.1,0.1-0.1,0.2-0.2c0.2-0.3,0.5-0.5,0.7-0.8c0,0,0,0,0,0c0-0.1,0.1-0.1,0.1-0.2&#10;&#9;&#9;&#9;&#9;c0.1-0.2,0.2-0.3,0.4-0.5c0.1-0.1,0.1-0.2,0.2-0.3c0.1-0.2,0.2-0.3,0.3-0.5c0,0,0.1-0.1,0.1-0.1c0-0.1,0.1-0.1,0.1-0.2&#10;&#9;&#9;&#9;&#9;c0.1-0.1,0.1-0.3,0.2-0.4c0.1-0.1,0.1-0.2,0.2-0.3c0.1-0.1,0.1-0.3,0.2-0.4c0-0.1,0.1-0.1,0.1-0.2c0-0.1,0-0.1,0.1-0.2&#10;&#9;&#9;&#9;&#9;c0-0.1,0.1-0.2,0.1-0.4c0-0.1,0.1-0.2,0.1-0.3c0-0.1,0.1-0.2,0.1-0.4c0-0.1,0-0.1,0-0.2c0,0,0-0.1,0-0.1c0-0.1,0-0.3,0.1-0.4&#10;&#9;&#9;&#9;&#9;c0-0.1,0-0.2,0-0.3c0-0.1,0-0.3,0-0.4c0-0.1,0-0.2,0-0.2c0-0.1,0-0.1,0-0.2l0-7.2C945.4,846.8,945.4,847,945.4,847.1z"/>
			<g>
				<path fill="#F2C05B" d="M937.9,836.2c10,5.8,10.1,15.2,0.1,20.9c-9.9,5.8-26.1,5.8-36.2,0c-10-5.8-10.1-15.2-0.1-20.9&#10;&#9;&#9;&#9;&#9;&#9;S927.9,830.4,937.9,836.2z"/>
			</g>
			<g>
				<path fill="#EC8659" d="M928.2,845.1c2.2,1.3,2.5,3.3,0.2,5.2l2.5,1.5l-2.4,1.4l-2.4-1.4c-1.7,0.9-3.8,1.6-5.2,1.8l-2.2-2.1&#10;&#9;&#9;&#9;&#9;&#9;c1.6-0.3,3.5-0.8,5.1-1.7c1.4-0.8,1.8-1.7,0.8-2.2c-0.9-0.5-2.3-0.4-4.7,0.3c-3.5,1-6.6,1.3-8.9,0c-2.2-1.3-2.4-3.1-0.2-4.9&#10;&#9;&#9;&#9;&#9;&#9;l-2.4-1.4l2.4-1.4l2.2,1.3c1.7-0.9,3.2-1.3,4.4-1.6l2.1,2c-0.9,0.2-2.6,0.5-4.4,1.6c-1.6,0.9-1.4,1.6-0.7,2&#10;&#9;&#9;&#9;&#9;&#9;c0.8,0.5,2.2,0.3,5.1-0.5C923.4,843.7,926,843.8,928.2,845.1z"/>
			</g>
		</g>
	</g>
	<g>
		<g enable-background="new    ">
			<path fill="#F2449C" d="M517.6,286.1c-10.5-6.1-25-5.2-41,4c-31.8,18.4-57.5,62.8-57.4,99.4c0.1,18.1,6.5,30.9,16.8,36.9&#10;&#9;&#9;&#9;&#9;l26.4,15.3c-10.3-6-16.7-18.8-16.8-36.9c-0.1-36.5,25.6-81,57.4-99.4c16-9.2,30.5-10.1,41-4L517.6,286.1z"/>
			<g>
				<path fill="#F965A8" d="M503,305.4c31.8-18.4,57.6-3.6,57.7,32.9c0.1,36.5-25.6,81-57.4,99.4s-57.6,3.6-57.7-32.9&#10;&#9;&#9;&#9;&#9;&#9;S471.2,323.8,503,305.4z"/>
			</g>
		</g>
		<g enable-background="new    ">
			<g>
				<path fill="#FFFFFF" d="M520.6,333.7c8.7-5,17.1-1.5,17.8,11.4c0.7,14.5-13.7,37.9-29.3,60c-1,1.4-2.2,2.5-3.4,3.2&#10;&#9;&#9;&#9;&#9;&#9;c-1.2,0.7-2.3,0.9-3.3,0.7c-15.7-3.8-30.4-10.2-30-25.4c0.4-13.6,8.9-27,17.6-32c1.7-1,3.5-1.7,5.1-2c6.9-1.2,9.6,2.4,10.1,3.1&#10;&#9;&#9;&#9;&#9;&#9;c0.5-1.3,3.2-8,10-14.8C517,336.1,518.8,334.8,520.6,333.7z"/>
			</g>
		</g>
	</g>
</g>
</svg>